<?xml version="1.0" standalone="no"?>
<!DOCTYPE svg PUBLIC "-//W3C//DTD SVG 20010904//EN"
 "http://www.w3.org/TR/2001/REC-SVG-20010904/DTD/svg10.dtd">
<svg version="1.0" xmlns="http://www.w3.org/2000/svg"
 width="724.000000pt" height="724.000000pt" viewBox="0 0 724.000000 724.000000"
 preserveAspectRatio="xMidYMid meet">

<g transform="translate(0.000000,724.000000) scale(0.100000,-0.100000)"
fill="#000000" stroke="none">
<path d="M5591 7070 l-70 -60 -3 49 -3 48 -125 -87 c-91 -64 -128 -85 -137
-78 -7 6 -27 35 -44 64 -17 30 -34 54 -37 54 -4 0 -25 -35 -47 -78 -38 -73
-42 -77 -75 -78 -19 -1 -53 -2 -75 -3 l-40 -2 63 -59 c34 -33 62 -62 62 -66 0
-5 -101 2 -168 12 l-33 5 6 -43 c5 -35 3 -49 -13 -67 -22 -28 -42 -21 -42 15
0 26 -22 32 -50 14 -13 -9 -11 -14 13 -31 23 -18 26 -24 15 -37 -11 -13 -10
-14 12 -8 21 6 22 5 8 -4 -10 -6 -18 -16 -18 -22 0 -7 -12 -24 -26 -39 -31
-32 -36 -100 -10 -128 9 -10 16 -20 16 -23 0 -3 -18 -28 -40 -54 l-40 -48 27
-14 c14 -8 31 -15 37 -16 6 -1 50 -25 99 -53 48 -29 103 -55 122 -59 19 -3 35
-11 35 -16 0 -5 9 -6 20 -3 16 5 23 1 30 -22 10 -28 48 -53 82 -53 10 0 17 -5
15 -12 -1 -6 19 -22 45 -34 25 -13 49 -27 52 -32 3 -5 -23 -17 -58 -26 -35 -8
-77 -21 -92 -27 -29 -12 -28 -12 31 -25 33 -8 109 -17 168 -21 59 -3 110 -10
113 -14 2 -5 -9 -15 -26 -24 -16 -8 -30 -21 -30 -29 0 -13 41 -36 65 -36 8 0
15 -4 15 -8 0 -4 26 -21 58 -37 31 -16 59 -31 62 -33 9 -7 -25 -20 -66 -27
-24 -3 -46 -10 -49 -14 -2 -5 11 -21 31 -36 95 -73 230 -201 241 -229 6 -17
15 -58 19 -91 4 -33 9 -54 11 -48 3 8 17 0 37 -22 24 -25 36 -31 44 -23 6 6
18 8 28 4 19 -7 10 -22 -16 -28 -12 -2 -7 -11 18 -32 18 -16 32 -23 30 -16 -2
7 3 15 11 18 10 3 13 -2 9 -22 -3 -14 0 -30 7 -36 10 -8 19 -1 36 30 12 22 25
40 29 40 5 0 128 -33 171 -46 11 -3 40 25 93 91 l77 95 50 0 49 0 -19 39 c-17
32 -26 39 -61 45 l-40 6 0 71 0 71 84 -46 84 -46 7 40 c6 36 10 41 48 50 84
21 84 21 28 73 l-51 48 28 67 c28 65 30 67 74 77 l45 10 -18 50 c-23 65 -25
197 -4 215 8 6 13 21 12 33 -1 14 5 22 22 27 l24 6 -27 17 c-21 14 -30 16 -42
7 -7 -7 -22 -9 -31 -5 -17 6 -17 7 0 20 17 12 15 15 -30 41 l-48 29 40 7 c22
4 55 7 73 7 24 1 32 6 32 19 0 9 3 27 6 39 5 18 -1 25 -36 43 l-43 22 6 71 c5
59 3 80 -14 116 l-20 44 -33 -32 -33 -32 -6 53 c-4 29 -7 67 -7 85 0 31 -1 32
-57 38 -32 3 -75 9 -97 12 l-39 5 7 73 7 73 -50 42 c-28 23 -55 39 -60 36 -5
-4 -13 -21 -16 -39 -5 -20 -25 -49 -53 -75 -54 -51 -54 -51 -72 65 -12 71 -12
73 -56 97 -40 22 -53 24 -110 19 -49 -4 -64 -10 -64 -21 0 -13 -3 -13 -12 -4
-7 7 -29 12 -50 12 -22 0 -40 6 -45 14 -7 13 -12 16 -29 16 -4 0 -1 6 5 14 8
10 8 16 -3 25 -12 10 -28 1 -85 -49z m-101 -21 c0 -5 -7 -9 -15 -9 -15 0 -20
12 -9 23 8 8 24 -1 24 -14z m210 -129 c0 -5 -4 -10 -10 -10 -5 0 -10 5 -10 10
0 6 5 10 10 10 6 0 10 -4 10 -10z m280 -18 c0 -9 -5 -24 -10 -32 -7 -11 -10
-5 -10 23 0 23 4 36 10 32 6 -3 10 -14 10 -23z m-482 -15 c2 -12 -3 -17 -17
-17 -12 0 -21 6 -21 13 0 31 32 34 38 4z m-457 -32 c0 -5 -9 -11 -21 -13 -20
-3 -27 8 -13 22 10 9 34 3 34 -9z m309 -5 c0 -5 -7 -10 -15 -10 -8 0 -15 5
-15 10 0 6 7 10 15 10 8 0 15 -4 15 -10z m814 1 c7 -10 -69 -73 -78 -64 -11
12 -6 41 10 57 17 17 59 22 68 7z m-684 -30 c5 -11 10 -24 10 -29 0 -14 -35
-21 -54 -10 -15 8 -15 11 1 33 22 30 29 31 43 6z m210 -72 c0 -11 -4 -17 -10
-14 -5 3 -10 15 -10 26 0 11 5 17 10 14 6 -3 10 -15 10 -26z m75 1 c3 -5 1
-10 -4 -10 -6 0 -11 5 -11 10 0 6 2 10 4 10 3 0 8 -4 11 -10z m80 -10 c-3 -5
-11 -10 -16 -10 -6 0 -7 5 -4 10 3 6 11 10 16 10 6 0 7 -4 4 -10z m-575 -10
c10 0 28 -8 40 -18 19 -16 21 -22 11 -40 -6 -12 -17 -22 -24 -22 -28 0 -97 36
-97 51 0 21 22 41 38 34 8 -3 22 -5 32 -5z m915 -19 c3 -5 1 -12 -5 -16 -5 -3
-10 1 -10 9 0 18 6 21 15 7z m-1021 -36 c6 -18 -2 -45 -15 -45 -5 0 -9 14 -9
30 0 32 14 40 24 15z m697 -8 c-13 -13 -26 -3 -16 12 3 6 11 8 17 5 6 -4 6
-10 -1 -17z m-797 -23 c9 -3 16 -16 16 -28 0 -15 -3 -17 -9 -8 -4 7 -12 12
-17 11 -21 -4 -34 2 -34 16 0 16 17 19 44 9z m376 -14 c0 -22 -12 -25 -41 -10
-28 16 -23 30 11 30 23 0 30 -4 30 -20z m1010 -35 c0 -8 -9 -15 -20 -15 -20 0
-26 11 -13 23 12 13 33 7 33 -8z m-420 -5 c0 -5 7 -10 16 -10 22 0 13 -34 -10
-38 -14 -3 -17 0 -13 11 3 9 -1 18 -9 21 -19 7 -18 26 1 26 8 0 15 -4 15 -10z
m105 -50 c-5 -8 -11 -8 -17 -2 -6 6 -7 16 -3 22 5 8 11 8 17 2 6 -6 7 -16 3
-22z m-1228 14 c-3 -3 -12 -4 -19 -1 -8 3 -5 6 6 6 11 1 17 -2 13 -5z m493
-14 c15 -28 1 -49 -17 -25 -15 22 -17 45 -3 45 5 0 14 -9 20 -20z m-206 -51
c-3 -5 -10 -7 -15 -3 -5 3 -7 10 -3 15 3 5 10 7 15 3 5 -3 7 -10 3 -15z m246
5 c0 -8 -5 -12 -10 -9 -6 4 -8 11 -5 16 9 14 15 11 15 -7z m-610 -15 c0 -20
-21 -49 -35 -49 -10 0 -15 10 -15 30 0 25 4 30 25 30 14 0 25 -5 25 -11z
m1660 1 c0 -5 -5 -10 -11 -10 -5 0 -7 5 -4 10 3 6 8 10 11 10 2 0 4 -4 4 -10z
m-700 -10 c0 -5 -4 -10 -10 -10 -5 0 -10 5 -10 10 0 6 5 10 10 10 6 0 10 -4
10 -10z m234 -3 c17 -12 17 -14 -1 -45 -10 -17 -24 -32 -31 -32 -18 0 -27 29
-13 43 6 6 11 19 11 29 0 21 10 23 34 5z m-544 -26 c0 -32 -22 -56 -45 -47
-21 8 -19 28 5 54 28 30 40 28 40 -7z m428 8 c-2 -6 -8 -10 -13 -10 -5 0 -11
4 -13 10 -2 6 4 11 13 11 9 0 15 -5 13 -11z m-698 -34 c0 -8 -4 -15 -10 -15
-5 0 -10 7 -10 15 0 8 5 15 10 15 6 0 10 -7 10 -15z m-251 -41 c-6 -8 -17 -14
-25 -14 -20 0 -27 19 -14 35 9 11 17 12 32 4 15 -8 17 -13 7 -25z m874 11 c-3
-8 0 -15 6 -15 6 0 11 -4 11 -10 0 -5 -7 -10 -15 -10 -8 0 -15 5 -15 10 0 6
-7 10 -15 10 -20 0 -19 10 2 26 21 15 34 9 26 -11z m-453 0 c0 -8 -2 -15 -4
-15 -2 0 -6 7 -10 15 -3 8 -1 15 4 15 6 0 10 -7 10 -15z m280 0 c0 -8 -4 -15
-9 -15 -13 0 -22 16 -14 24 11 11 23 6 23 -9z m68 3 c-6 -18 -28 -21 -28 -4 0
9 7 16 16 16 9 0 14 -5 12 -12z m-581 -23 c8 -22 -6 -33 -17 -15 -13 20 -12
30 0 30 6 0 13 -7 17 -15z m449 -11 c13 -3 24 -10 24 -15 0 -17 -30 -22 -56
-11 -27 13 -35 48 -8 38 9 -3 27 -9 40 -12z m-796 -14 c0 -11 -4 -20 -10 -20
-5 0 -10 9 -10 20 0 11 5 20 10 20 6 0 10 -9 10 -20z m180 -15 c0 -9 -9 -15
-25 -15 -24 0 -32 10 -18 23 12 13 43 7 43 -8z m377 -27 c-3 -8 -6 -5 -6 6 -1
11 2 17 5 13 3 -3 4 -12 1 -19z m163 -8 c0 -11 -48 -25 -56 -17 -4 3 -3 10 1
16 8 14 55 14 55 1z m270 -4 c0 -11 -19 -15 -25 -6 -3 5 1 10 9 10 9 0 16 -2
16 -4z m630 -5 c0 -5 -7 -14 -15 -21 -12 -10 -15 -10 -15 2 0 8 3 18 7 21 9
10 23 9 23 -2z m-1090 -21 c0 -5 -4 -10 -10 -10 -5 0 -10 5 -10 10 0 6 5 10
10 10 6 0 10 -4 10 -10z m720 -10 c0 -5 -7 -10 -16 -10 -8 0 -12 5 -9 10 3 6
10 10 16 10 5 0 9 -4 9 -10z m-360 -9 c0 -5 9 -11 20 -14 11 -3 20 -10 20 -16
0 -16 -17 -13 -40 6 -22 19 -26 33 -10 33 6 0 10 -4 10 -9z m-700 -21 c0 -5
-2 -10 -4 -10 -3 0 -8 5 -11 10 -3 6 -1 10 4 10 6 0 11 -4 11 -10z m803 -7 c9
-9 -13 -34 -24 -27 -14 8 -11 34 4 34 8 0 17 -3 20 -7z m-453 -13 c0 -5 -5
-10 -11 -10 -5 0 -7 5 -4 10 3 6 8 10 11 10 2 0 4 -4 4 -10z m264 1 c3 -4 -3
-16 -14 -26 -27 -24 -50 -6 -25 19 18 18 31 20 39 7z m346 -1 c0 -5 -4 -10
-10 -10 -5 0 -10 5 -10 10 0 6 5 10 10 10 6 0 10 -4 10 -10z m-550 -30 c0 -5
-4 -10 -10 -10 -5 0 -10 5 -10 10 0 6 5 10 10 10 6 0 10 -4 10 -10z m980 0 c0
-5 -4 -10 -10 -10 -5 0 -10 5 -10 10 0 6 5 10 10 10 6 0 10 -4 10 -10z m-370
-30 c0 -5 -2 -10 -4 -10 -3 0 -8 5 -11 10 -3 6 -1 10 4 10 6 0 11 -4 11 -10z
m430 -51 c0 -32 -34 -20 -38 14 -3 26 -2 28 17 17 12 -6 21 -20 21 -31z m50
11 c-18 -11 -24 -6 -16 16 5 14 9 15 19 5 9 -9 9 -14 -3 -21z m-1050 0 c0 -11
-6 -20 -14 -20 -18 0 -29 16 -21 30 11 18 35 11 35 -10z m660 -16 c0 -33 -33
-30 -38 4 -3 17 2 22 17 22 16 0 21 -6 21 -26z m-440 7 c0 -11 -39 -21 -45
-11 -2 4 -2 10 2 14 10 9 43 7 43 -3z m890 -18 c0 -16 -4 -34 -9 -41 -13 -21
-33 11 -25 42 8 35 34 34 34 -1z m-570 -3 c0 -5 -4 -10 -10 -10 -5 0 -10 5
-10 10 0 6 5 10 10 10 6 0 10 -4 10 -10z m174 -12 c22 -31 20 -55 -4 -63 -30
-9 -40 2 -40 46 0 45 19 53 44 17z m446 -8 c0 -5 -4 -10 -10 -10 -5 0 -10 5
-10 10 0 6 5 10 10 10 6 0 10 -4 10 -10z m-190 -29 c0 -6 -4 -13 -10 -16 -5
-3 -10 1 -10 9 0 9 5 16 10 16 6 0 10 -4 10 -9z m-1100 -11 c0 -5 -4 -10 -10
-10 -5 0 -10 5 -10 10 0 6 5 10 10 10 6 0 10 -4 10 -10z m365 -40 c3 -5 1 -10
-4 -10 -6 0 -11 5 -11 10 0 6 2 10 4 10 3 0 8 -4 11 -10z m235 0 c0 -5 -4 -10
-10 -10 -5 0 -10 5 -10 10 0 6 5 10 10 10 6 0 10 -4 10 -10z m100 0 c0 -5 -7
-10 -15 -10 -8 0 -15 5 -15 10 0 6 7 10 15 10 8 0 15 -4 15 -10z m-382 -26
c-4 -23 -32 -39 -52 -31 -14 6 -14 10 -4 27 16 25 61 28 56 4z m172 -14 c0
-11 -4 -20 -10 -20 -5 0 -10 9 -10 20 0 11 5 20 10 20 6 0 10 -9 10 -20z m-80
-14 c0 -3 -4 -8 -10 -11 -5 -3 -10 -1 -10 4 0 6 5 11 10 11 6 0 10 -2 10 -4z
m580 0 c0 -3 -4 -8 -10 -11 -5 -3 -10 -1 -10 4 0 6 5 11 10 11 6 0 10 -2 10
-4z m-500 -112 c0 -1 -13 -1 -29 -2 -17 0 -40 -6 -51 -12 -15 -8 -25 -9 -32
-2 -14 14 -1 32 23 32 12 0 24 11 32 28 19 44 31 44 44 -1 7 -23 13 -42 13
-43z m40 56 c0 -5 -4 -10 -10 -10 -5 0 -10 5 -10 10 0 6 5 10 10 10 6 0 10 -4
10 -10z m77 -12 c-3 -8 -6 -5 -6 6 -1 11 2 17 5 13 3 -3 4 -12 1 -19z m205 -5
c20 -23 30 -55 20 -68 -8 -12 -53 -38 -57 -33 -1 2 -8 14 -15 27 -11 21 -10
26 4 36 9 7 16 22 16 34 0 26 12 27 32 4z m246 -2 c3 -8 -1 -12 -9 -9 -7 2
-15 10 -17 17 -3 8 1 12 9 9 7 -2 15 -10 17 -17z m34 -33 c-9 -9 -12 -7 -12
12 0 19 3 21 12 12 9 -9 9 -15 0 -24z m-112 8 c0 -7 -12 -16 -27 -19 -33 -7
-55 9 -33 23 23 14 60 12 60 -4z m80 -36 c0 -5 -4 -10 -10 -10 -5 0 -10 5 -10
10 0 6 5 10 10 10 6 0 10 -4 10 -10z m-560 -18 c0 -7 -36 -42 -44 -42 -8 0
-16 32 -10 41 6 11 54 12 54 1z m500 -62 c0 -21 -25 -4 -28 20 -4 21 -2 22 12
7 9 -8 16 -21 16 -27z m-300 -16 c0 -14 -4 -22 -10 -19 -5 3 -10 17 -10 31 0
14 4 22 10 19 6 -3 10 -17 10 -31z m380 16 c0 -11 -4 -20 -10 -20 -5 0 -10 9
-10 20 0 11 5 20 10 20 6 0 10 -9 10 -20z m-760 -6 c0 -9 -5 -14 -12 -12 -18
6 -21 28 -4 28 9 0 16 -7 16 -16z m287 -16 c-3 -8 -6 -5 -6 6 -1 11 2 17 5 13
3 -3 4 -12 1 -19z m-177 2 c0 -5 -4 -10 -10 -10 -5 0 -10 5 -10 10 0 6 5 10
10 10 6 0 10 -4 10 -10z m-90 -90 c47 -24 52 -40 13 -40 -52 0 -73 11 -73 36
0 29 9 30 60 4z m318 1 c3 -8 -1 -12 -9 -9 -7 2 -15 10 -17 17 -3 8 1 12 9 9
7 -2 15 -10 17 -17z m-160 -17 c25 -17 29 -44 7 -44 -23 0 -65 30 -65 46 0 19
30 18 58 -2z m-78 -54 c-8 -5 -17 -7 -19 -4 -3 3 1 9 9 14 8 5 17 7 19 4 3 -3
-1 -9 -9 -14z m480 -10 c0 -5 -4 -10 -10 -10 -5 0 -10 5 -10 10 0 6 5 10 10
10 6 0 10 -4 10 -10z m-97 -25 c4 -8 2 -17 -3 -20 -6 -4 -10 3 -10 14 0 25 6
27 13 6z m84 -60 c10 -27 -6 -30 -29 -7 l-22 22 22 0 c12 0 25 -7 29 -15z
m-187 1 c0 -11 -19 -15 -25 -6 -3 5 1 10 9 10 9 0 16 -2 16 -4z m260 -11 c0
-8 -4 -15 -9 -15 -13 0 -22 16 -14 24 11 11 23 6 23 -9z m-260 -45 c0 -5 -4
-10 -10 -10 -5 0 -10 5 -10 10 0 6 5 10 10 10 6 0 10 -4 10 -10z m-80 -25 c0
-8 -4 -15 -10 -15 -5 0 -10 7 -10 15 0 8 5 15 10 15 6 0 10 -7 10 -15z m460 5
c0 -5 -4 -10 -10 -10 -5 0 -10 5 -10 10 0 6 5 10 10 10 6 0 10 -4 10 -10z
m-300 -40 c0 -22 -25 -27 -50 -10 -13 9 -13 11 0 20 25 17 50 12 50 -10z
m-180 -45 c0 -8 -7 -15 -15 -15 -8 0 -15 7 -15 15 0 8 7 15 15 15 8 0 15 -7
15 -15z m74 -27 c-7 -11 -32 -10 -39 2 -11 18 5 30 25 18 10 -7 16 -16 14 -20z"/>
<path d="M1455 7074 l-27 -47 -153 7 -153 7 -6 -45 c-4 -25 -10 -46 -13 -46
-3 0 -32 7 -64 15 l-59 15 -70 -35 c-54 -27 -70 -40 -66 -53 2 -9 7 -35 10
-57 4 -22 9 -52 12 -67 5 -26 4 -27 -53 -33 -32 -3 -79 -8 -105 -11 l-47 -6
-3 -86 -3 -87 -24 43 c-14 23 -28 42 -31 42 -15 0 -50 -101 -56 -163 -6 -60
-9 -70 -30 -77 -28 -11 -27 -5 -13 -70 l11 -51 41 6 c23 3 54 8 69 11 16 3 28
3 28 0 0 -13 -125 -99 -156 -108 l-35 -9 36 -48 c22 -31 35 -60 35 -80 0 -17
4 -31 9 -31 13 0 0 -90 -20 -137 l-18 -42 49 -16 c52 -17 52 -18 70 -107 l11
-57 -35 -32 c-20 -17 -36 -34 -36 -38 0 -3 28 -18 61 -33 56 -25 61 -30 55
-52 -5 -21 1 -28 45 -56 l51 -31 -26 -34 -26 -34 55 -16 c49 -14 59 -22 91
-70 20 -30 40 -52 45 -49 5 3 7 -1 4 -8 -3 -7 5 -25 17 -40 l23 -28 93 26 c52
14 95 24 96 22 1 -2 14 -22 29 -46 l28 -43 42 38 c58 52 87 88 87 108 0 11 5
15 14 12 26 -10 59 51 80 149 8 34 64 100 108 127 15 9 35 30 44 47 10 16 24
30 31 30 7 0 30 16 50 35 43 41 39 49 -34 60 -46 7 -56 20 -23 30 11 3 41 21
68 40 27 18 57 34 68 37 12 2 20 13 22 29 2 19 -3 28 -24 38 -15 6 -24 14 -21
17 3 3 40 7 83 10 120 6 207 17 259 33 l30 8 -30 8 c-16 4 -56 13 -88 21 -32
8 -67 14 -78 14 -29 0 -23 16 11 30 36 15 39 30 5 30 -16 0 -25 6 -25 16 0 15
9 16 63 10 55 -5 68 -3 89 14 14 11 29 31 32 45 7 26 31 34 39 13 3 -10 10 -8
25 5 11 11 38 25 59 32 24 9 37 19 37 30 -1 9 22 34 51 56 29 22 58 52 63 67
20 51 24 72 13 72 -6 0 -11 7 -11 16 0 10 6 14 15 10 10 -4 17 5 24 32 32 121
43 173 37 179 -3 4 -19 -3 -34 -14 -27 -20 -29 -20 -50 -3 l-22 18 30 14 c16
7 31 17 31 23 8 61 11 58 -48 51 l-55 -6 22 30 c12 17 19 34 16 37 -3 4 -6 1
-6 -5 0 -13 -36 -17 -43 -4 -8 11 -147 2 -144 -10 1 -6 -4 -13 -12 -16 -10 -3
-12 0 -8 11 4 10 0 17 -11 19 -12 3 1 16 41 43 50 33 56 40 39 46 -10 4 -22
14 -25 22 -3 8 -22 18 -42 21 -31 6 -43 17 -78 72 -22 35 -43 64 -46 64 -4 0
-18 -30 -32 -66 -14 -36 -29 -65 -34 -65 -6 1 -69 44 -142 96 -126 91 -152
107 -138 85 4 -6 8 -28 10 -50 4 -37 3 -40 -15 -30 -10 6 -22 15 -25 20 -3 6
-14 10 -25 10 -10 0 -20 6 -23 14 -3 7 -19 23 -35 35 l-30 21 -27 -46z m-175
-64 c0 -5 -4 -10 -10 -10 -5 0 -10 5 -10 10 0 6 5 10 10 10 6 0 10 -4 10 -10z
m130 -32 c0 -11 -31 -10 -49 1 -12 8 -13 12 -1 25 12 15 14 15 31 0 11 -10 19
-21 19 -26z m140 -39 c0 -5 -4 -9 -10 -9 -5 0 -10 7 -10 16 0 8 5 12 10 9 6
-3 10 -10 10 -16z m260 11 c0 -5 -5 -10 -11 -10 -5 0 -7 5 -4 10 3 6 8 10 11
10 2 0 4 -4 4 -10z m-425 -26 c28 -18 33 -44 10 -44 -8 0 -15 7 -15 15 0 9 -7
18 -15 21 -8 4 -15 10 -15 15 0 13 7 11 35 -7z m-154 -37 c-13 -13 -26 -3 -16
12 3 6 11 8 17 5 6 -4 6 -10 -1 -17z m-71 -2 c0 -8 -9 -15 -20 -15 -20 0 -26
11 -13 23 12 13 33 7 33 -8z m491 -28 c-1 -12 -15 -9 -19 4 -3 6 1 10 8 8 6
-3 11 -8 11 -12z m436 -13 c27 6 27 6 9 -9 -24 -19 -50 -19 -65 -2 -14 18 -2
30 15 16 8 -6 26 -8 41 -5z m-463 -49 c-4 -8 -17 -15 -30 -15 -15 0 -24 6 -24
15 0 10 10 15 30 15 22 0 28 -4 24 -15z m134 -12 c3 -22 49 -63 71 -63 21 0
11 -20 -13 -26 -45 -11 -61 -1 -58 34 2 25 -2 32 -16 32 -10 0 -27 7 -38 15
-16 13 -17 16 -4 25 24 16 55 7 58 -17z m-653 7 c12 -20 -6 -50 -31 -50 -28 0
-30 7 -8 38 16 24 29 28 39 12z m-145 -30 c0 -5 -5 -10 -11 -10 -5 0 -7 5 -4
10 3 6 8 10 11 10 2 0 4 -4 4 -10z m560 -39 c15 -28 13 -31 -20 -31 -22 0 -30
5 -30 18 0 36 33 44 50 13z m420 -2 c0 -5 -4 -9 -10 -9 -5 0 -10 7 -10 16 0 8
5 12 10 9 6 -3 10 -10 10 -16z m84 -20 c-3 -5 -10 -7 -15 -3 -5 3 -7 10 -3 15
3 5 10 7 15 3 5 -3 7 -10 3 -15z m156 -39 c0 -5 -4 -10 -10 -10 -5 0 -10 5
-10 10 0 6 5 10 10 10 6 0 10 -4 10 -10z m-593 -47 c-16 -16 -17 -16 -17 3 0
26 11 37 24 24 7 -7 5 -16 -7 -27z m-97 2 c7 -9 11 -18 8 -20 -9 -10 -38 7
-38 21 0 18 14 18 30 -1z m-560 -15 c0 -5 -4 -10 -10 -10 -5 0 -10 5 -10 10 0
6 5 10 10 10 6 0 10 -4 10 -10z m810 -11 c0 -5 -7 -9 -15 -9 -15 0 -20 12 -9
23 8 8 24 -1 24 -14z m630 -9 c0 -5 -7 -10 -15 -10 -8 0 -15 5 -15 10 0 6 7
10 15 10 8 0 15 -4 15 -10z m-1502 -9 c11 -7 10 -10 -3 -15 -20 -7 -38 1 -30
15 7 11 16 11 33 0z m-111 -57 c-9 -9 -28 6 -21 18 4 6 10 6 17 -1 6 -6 8 -13
4 -17z m1213 16 c0 -5 -4 -10 -10 -10 -5 0 -10 5 -10 10 0 6 5 10 10 10 6 0
10 -4 10 -10z m-1053 -41 c26 -10 27 -12 8 -19 -33 -14 -45 -11 -45 10 0 23 0
23 37 9z m1033 7 c0 -20 -16 -36 -36 -36 -26 0 -30 10 -12 28 11 11 48 17 48
8z m280 -16 c0 -19 -11 -26 -23 -14 -8 8 3 34 14 34 5 0 9 -9 9 -20z m-116 -5
c-4 -8 -17 -15 -31 -15 -22 0 -24 2 -13 15 7 8 21 15 31 15 12 0 16 -5 13 -15z
m-554 -15 c0 -5 -4 -10 -10 -10 -5 0 -10 5 -10 10 0 6 5 10 10 10 6 0 10 -4
10 -10z m-200 -8 c0 -13 -12 -22 -22 -16 -10 6 -1 24 13 24 5 0 9 -4 9 -8z
m950 -47 c-7 -8 -21 -15 -31 -15 -11 0 -19 7 -19 15 0 10 10 15 31 15 27 0 30
-2 19 -15z m-740 -16 c0 -5 -7 -9 -15 -9 -15 0 -20 12 -9 23 8 8 24 -1 24 -14z
m-613 -5 c-3 -3 -12 -4 -19 -1 -8 3 -5 6 6 6 11 1 17 -2 13 -5z m828 -4 c3 -5
1 -10 -4 -10 -6 0 -11 5 -11 10 0 6 2 10 4 10 3 0 8 -4 11 -10z m85 -20 c0 -5
-2 -10 -4 -10 -3 0 -8 5 -11 10 -3 6 -1 10 4 10 6 0 11 -4 11 -10z m-1165 -20
c8 -13 -13 -40 -31 -40 -17 0 -18 37 -1 43 19 8 25 8 32 -3z m252 -5 c7 -20
-2 -29 -21 -22 -9 4 -13 13 -10 22 8 19 23 19 31 0z m593 -38 c0 -20 0 -20
-15 -1 -20 27 -20 51 0 34 8 -7 15 -22 15 -33z m-380 3 c0 -5 -2 -10 -4 -10
-3 0 -8 5 -11 10 -3 6 -1 10 4 10 6 0 11 -4 11 -10z m250 -24 c0 -8 -7 -17
-16 -20 -28 -11 -35 -7 -24 14 12 23 40 27 40 6z m717 -73 c-4 -17 -4 -17 -12
0 -4 9 -4 25 0 35 8 16 8 16 12 0 3 -10 3 -26 0 -35z m-847 27 c0 -5 -4 -10
-10 -10 -5 0 -10 5 -10 10 0 6 5 10 10 10 6 0 10 -4 10 -10z m610 -4 c0 -20
-13 -27 -30 -15 -13 8 -13 10 0 19 21 14 30 12 30 -4z m120 -38 c0 -4 -4 -8
-10 -8 -5 0 -10 5 -10 10 0 6 -10 10 -22 10 -23 1 -23 1 -3 16 18 13 21 13 32
-3 7 -9 13 -20 13 -25z m-426 16 c23 -9 20 -24 -4 -24 -11 0 -20 7 -20 15 0
17 2 18 24 9z m-719 -14 c3 -5 -1 -10 -9 -10 -9 0 -16 5 -16 10 0 6 4 10 9 10
6 0 13 -4 16 -10z m1064 -54 c-2 -2 -19 -7 -38 -11 -26 -5 -32 -4 -29 6 6 17
50 29 62 18 5 -5 8 -10 5 -13z m-879 -43 c0 -7 -9 -13 -20 -13 -21 0 -25 15
-13 46 6 16 7 16 20 -2 7 -10 13 -24 13 -31z m505 27 c3 -5 -1 -10 -9 -10 -9
0 -16 5 -16 10 0 6 4 10 9 10 6 0 13 -4 16 -10z m185 -24 c0 -15 -37 -32 -47
-22 -3 3 -3 12 0 21 8 19 47 20 47 1z m-560 -16 c0 -5 -4 -10 -9 -10 -6 0 -13
5 -16 10 -3 6 1 10 9 10 9 0 16 -4 16 -10z m-192 -22 c-6 -18 -25 -20 -31 -3
-5 10 0 15 14 15 12 0 19 -5 17 -12z m27 -28 c3 -11 15 -20 25 -20 17 0 30
-18 30 -42 0 -7 -5 -7 -13 1 -8 6 -17 8 -20 4 -4 -3 -10 3 -14 13 -3 10 -15
25 -25 32 -10 7 -16 18 -13 23 10 15 23 10 30 -11z m90 10 c3 -5 1 -10 -4 -10
-6 0 -11 5 -11 10 0 6 2 10 4 10 3 0 8 -4 11 -10z m445 -4 c0 -3 -4 -8 -10
-11 -5 -3 -10 -1 -10 4 0 6 5 11 10 11 6 0 10 -2 10 -4z m-920 -60 c0 -3 -4
-8 -10 -11 -5 -3 -10 -1 -10 4 0 6 5 11 10 11 6 0 10 -2 10 -4z m490 -15 c0
-20 -17 -37 -27 -28 -7 8 7 47 18 47 5 0 9 -9 9 -19z m788 -19 c3 -9 -2 -13
-14 -10 -9 1 -19 9 -22 16 -3 9 2 13 14 10 9 -1 19 -9 22 -16z m-1278 -52 c0
-5 -5 -10 -11 -10 -5 0 -7 5 -4 10 3 6 8 10 11 10 2 0 4 -4 4 -10z m647 -12
c-3 -8 -6 -5 -6 6 -1 11 2 17 5 13 3 -3 4 -12 1 -19z m33 2 c0 -5 -4 -10 -10
-10 -5 0 -10 5 -10 10 0 6 5 10 10 10 6 0 10 -4 10 -10z m318 -48 c2 -18 -1
-32 -6 -32 -12 0 -22 24 -22 52 0 32 25 15 28 -20z m-1071 -4 c-3 -8 -6 -5 -6
6 -1 11 2 17 5 13 3 -3 4 -12 1 -19z m293 -18 c0 -5 -4 -10 -10 -10 -5 0 -10
5 -10 10 0 6 5 10 10 10 6 0 10 -4 10 -10z m400 0 c0 -5 -7 -10 -16 -10 -8 0
-12 5 -9 10 3 6 10 10 16 10 5 0 9 -4 9 -10z m200 -30 c0 -5 -4 -10 -10 -10
-5 0 -10 5 -10 10 0 6 5 10 10 10 6 0 10 -4 10 -10z m-460 -20 c0 -5 -7 -10
-15 -10 -8 0 -15 5 -15 10 0 6 7 10 15 10 8 0 15 -4 15 -10z m473 -48 c-4 -18
-8 -20 -20 -10 -13 10 -13 14 3 25 22 16 25 13 17 -15z m-103 8 c0 -5 -4 -10
-10 -10 -5 0 -10 5 -10 10 0 6 5 10 10 10 6 0 10 -4 10 -10z m232 -75 c0 -5
-5 -11 -11 -13 -6 -2 -11 4 -11 13 0 9 5 15 11 13 6 -2 11 -8 11 -13z m-322
-55 c0 -5 -5 -10 -11 -10 -5 0 -7 5 -4 10 3 6 8 10 11 10 2 0 4 -4 4 -10z
m-110 -270 c0 -5 -4 -10 -10 -10 -5 0 -10 5 -10 10 0 6 5 10 10 10 6 0 10 -4
10 -10z m-139 -123 c-16 -16 -26 0 -10 19 9 11 15 12 17 4 2 -6 -1 -17 -7 -23z
m199 -17 c0 -5 -4 -10 -10 -10 -5 0 -10 5 -10 10 0 6 5 10 10 10 6 0 10 -4 10
-10z"/>
<path d="M2340 6639 c0 -5 5 -7 10 -4 6 3 10 8 10 11 0 2 -4 4 -10 4 -5 0 -10
-5 -10 -11z"/>
<path d="M1169 4873 c-13 -16 -12 -17 4 -4 9 7 17 15 17 17 0 8 -8 3 -21 -13z"/>
<path d="M2434 4553 c-4 -76 -8 -167 -8 -203 l-1 -65 35 -3 c19 -1 45 -8 58
-14 19 -10 25 -9 32 2 7 10 10 11 10 3 0 -8 13 -13 30 -13 30 0 31 1 24 37 -4
20 -29 83 -55 139 -27 56 -49 108 -49 116 0 15 -57 138 -64 138 -2 0 -8 -62
-12 -137z m44 -166 c3 -22 -1 -27 -17 -27 -15 0 -21 6 -21 23 0 46 33 49 38 4z
m42 13 c0 -5 -4 -10 -10 -10 -5 0 -10 5 -10 10 0 6 5 10 10 10 6 0 10 -4 10
-10z"/>
<path d="M2117 4409 c7 -7 15 -10 18 -7 3 3 -2 9 -12 12 -14 6 -15 5 -6 -5z"/>
<path d="M2240 4306 c0 -2 7 -7 16 -10 8 -3 12 -2 9 4 -6 10 -25 14 -25 6z"/>
<path d="M4495 4244 c-11 -9 -40 -26 -65 -38 -25 -12 -75 -41 -113 -64 -37
-23 -73 -42 -81 -42 -7 0 -20 -8 -30 -19 -16 -17 -14 -19 44 -31 68 -14 74
-32 16 -41 -32 -5 -40 -3 -53 18 -9 13 -17 22 -19 20 -2 -2 3 -59 11 -128 8
-68 12 -132 9 -141 -4 -13 0 -18 13 -18 16 -1 16 -2 2 -13 -13 -10 -14 -21 -4
-79 6 -38 16 -73 23 -80 17 -17 15 -28 -4 -28 -36 0 11 -64 146 -201 8 -8 24
-34 34 -57 13 -28 25 -42 38 -42 11 0 16 -5 13 -10 -4 -6 -11 -8 -16 -4 -11 6
18 -72 38 -101 7 -11 13 -27 13 -37 0 -10 7 -18 18 -18 12 0 13 -3 5 -8 -9 -6
-5 -24 18 -72 17 -36 35 -66 40 -68 5 -2 9 -10 9 -17 0 -8 13 -27 28 -43 34
-35 122 -171 122 -189 0 -7 5 -13 10 -13 6 0 10 -6 10 -12 0 -7 11 -37 25 -67
14 -30 23 -56 21 -59 -3 -2 -28 -12 -56 -21 l-50 -16 50 -40 c49 -39 86 -62
160 -103 32 -17 35 -23 38 -73 2 -29 7 -58 11 -64 5 -5 4 -43 -1 -83 -6 -41
-7 -76 -4 -80 4 -3 68 -10 143 -14 l136 -9 43 43 c23 24 50 49 58 56 11 8 16
29 16 62 0 46 2 50 35 66 41 19 44 31 12 43 -13 5 -43 28 -66 50 -23 23 -49
41 -57 41 -10 0 -14 7 -11 18 3 9 8 40 12 67 10 79 16 95 34 95 25 0 68 -50
76 -88 6 -30 4 -34 -24 -45 -17 -6 -31 -15 -31 -19 0 -3 59 -7 130 -6 72 0
130 4 130 9 0 5 -13 15 -30 24 -16 9 -30 20 -30 26 0 6 -14 22 -30 36 -17 13
-28 29 -24 34 3 5 57 9 120 9 69 0 114 4 114 10 0 6 -6 10 -13 10 -7 0 -28 13
-47 30 -35 29 -36 29 -160 30 l-125 1 54 27 53 26 -5 53 c-5 51 -5 53 21 59
93 21 87 17 84 60 -5 65 -12 95 -27 117 -7 12 -15 40 -17 62 -3 38 -1 41 38
60 23 11 48 26 56 32 8 7 35 20 59 28 67 24 92 43 77 58 -25 24 -73 54 -88 55
-8 0 -40 10 -70 21 -65 25 -60 24 -60 6 0 -27 -19 -16 -34 19 -11 27 -21 35
-50 40 -20 3 -52 9 -71 12 -42 7 -50 29 -30 77 19 45 19 57 0 57 -9 0 -12 6
-8 16 3 8 12 13 19 10 12 -4 34 21 34 38 0 8 -59 31 -97 39 -28 6 -33 4 -33
-13 0 -11 -7 -20 -16 -20 -10 0 -14 7 -12 22 3 19 -3 23 -41 30 -58 10 -64 18
-15 19 l39 1 -40 13 c-22 7 -55 16 -74 20 -30 6 -32 5 -29 -17 3 -20 -2 -23
-35 -26 -40 -3 -67 11 -67 34 0 17 27 18 33 2 3 -10 7 -10 20 1 10 7 17 16 17
20 0 7 -49 31 -64 31 -5 0 -24 12 -43 26 -34 25 -34 27 -27 81 4 32 2 63 -4
76 -6 12 -18 42 -27 67 -13 37 -25 51 -67 74 -50 28 -50 29 -45 70 3 23 9 49
12 58 6 15 3 15 -32 -2 -31 -14 -47 -16 -83 -10 -25 5 -48 9 -52 10 -5 0 -8 4
-8 9 0 13 67 34 85 27 8 -3 15 -1 15 4 0 6 -5 10 -12 10 -6 0 -3 7 8 15 18 13
16 14 -23 15 -27 0 -42 -4 -40 -11 1 -6 -4 -14 -12 -17 -10 -3 -12 0 -8 12 5
14 -2 16 -56 16 -40 -1 -69 -6 -82 -16z m-15 -74 c0 -5 -4 -10 -10 -10 -5 0
-10 5 -10 10 0 6 5 10 10 10 6 0 10 -4 10 -10z m-3 -75 c-7 -16 -37 -21 -37
-5 0 10 32 31 39 25 2 -2 1 -11 -2 -20z m156 -447 c23 -13 44 -24 46 -25 7 -4
-32 -37 -46 -39 -8 -2 -23 -10 -34 -20 -18 -16 -19 -16 -19 12 0 17 -6 36 -12
43 -10 11 -10 14 0 18 6 3 12 11 12 19 0 19 4 18 53 -8z m-133 -48 c0 -5 -4
-10 -10 -10 -5 0 -10 5 -10 10 0 6 5 10 10 10 6 0 10 -4 10 -10z m280 -75 c-9
-23 -60 -83 -60 -71 0 4 9 27 20 52 11 24 24 59 27 77 l7 32 7 -34 c4 -19 3
-44 -1 -56z m-170 -45 c0 -5 -2 -10 -4 -10 -3 0 -8 5 -11 10 -3 6 -1 10 4 10
6 0 11 -4 11 -10z m738 -15 c4 -18 -13 -35 -35 -35 -8 0 -8 7 0 30 12 32 30
35 35 5z m-98 -15 c0 -5 -4 -10 -10 -10 -5 0 -10 5 -10 10 0 6 5 10 10 10 6 0
10 -4 10 -10z m-586 -49 c7 -10 -28 -21 -64 -20 -24 1 -24 1 5 14 36 17 52 18
59 6z m536 -61 c0 -5 -4 -10 -10 -10 -5 0 -10 5 -10 10 0 6 5 10 10 10 6 0 10
-4 10 -10z m367 -62 c-3 -8 -6 -5 -6 6 -1 11 2 17 5 13 3 -3 4 -12 1 -19z
m-980 -60 c-3 -8 -6 -5 -6 6 -1 11 2 17 5 13 3 -3 4 -12 1 -19z m530 0 c-3 -8
-6 -5 -6 6 -1 11 2 17 5 13 3 -3 4 -12 1 -19z m-402 -8 c3 -5 1 -10 -4 -10 -6
0 -11 5 -11 10 0 6 2 10 4 10 3 0 8 -4 11 -10z m1025 -4 c0 -11 -19 -15 -25
-6 -3 5 1 10 9 10 9 0 16 -2 16 -4z m-230 -36 c-8 -5 -19 -10 -25 -10 -5 0 -3
5 5 10 8 5 20 10 25 10 6 0 3 -5 -5 -10z m-380 -20 c0 -5 -4 -10 -9 -10 -6 0
-13 5 -16 10 -3 6 1 10 9 10 9 0 16 -4 16 -10z m145 -10 c3 -5 1 -10 -4 -10
-6 0 -11 5 -11 10 0 6 2 10 4 10 3 0 8 -4 11 -10z m295 -15 c0 -2 -7 -5 -15
-9 -9 -3 -15 0 -15 9 0 9 6 12 15 9 8 -4 15 -7 15 -9z m-425 -55 c-5 -8 -11
-8 -17 -2 -6 6 -7 16 -3 22 5 8 11 8 17 2 6 -6 7 -16 3 -22z m-125 -40 c0 -5
-5 -10 -11 -10 -5 0 -7 5 -4 10 3 6 8 10 11 10 2 0 4 -4 4 -10z m90 -106 c0
-16 -16 -19 -25 -4 -8 13 4 32 16 25 5 -4 9 -13 9 -21z m50 1 c0 -8 -7 -15
-15 -15 -26 0 -18 20 13 29 1 1 2 -6 2 -14z m280 -169 c0 4 2 5 5 2 10 -10
-14 -58 -29 -58 -16 0 -24 25 -18 52 3 14 8 15 23 7 10 -5 19 -7 19 -3z m-90
-11 c0 -8 -4 -15 -10 -15 -5 0 -10 7 -10 15 0 8 5 15 10 15 6 0 10 -7 10 -15z
m-190 -113 c0 -13 -12 -22 -22 -16 -10 6 -1 24 13 24 5 0 9 -4 9 -8z m150 -22
c0 -5 -4 -10 -10 -10 -5 0 -10 5 -10 10 0 6 5 10 10 10 6 0 10 -4 10 -10z
m-316 -44 c7 -30 -2 -56 -20 -56 -10 0 -14 12 -14 40 0 45 24 56 34 16z m166
-185 c12 -15 100 -72 125 -81 55 -21 16 -20 -61 1 -56 15 -96 19 -136 16 -46
-4 -58 -2 -58 9 0 8 -9 14 -20 14 -37 0 -21 16 38 37 51 19 98 21 112 4z m-15
-227 c-24 -18 -34 -18 -42 2 -8 22 16 35 41 22 19 -10 19 -11 1 -24z m135 14
c0 -16 -3 -19 -11 -11 -6 6 -8 16 -5 22 11 17 16 13 16 -11z m-20 -48 c0 -11
-6 -20 -14 -20 -18 0 -29 16 -21 30 11 18 35 11 35 -10z"/>
<path d="M2613 4215 c-12 -26 -21 -34 -32 -28 -20 9 -111 12 -111 3 0 -3 5
-11 12 -18 9 -9 9 -15 0 -24 -9 -9 -12 -8 -12 4 0 11 -6 15 -20 11 -19 -5 -25
4 -21 35 1 6 -5 12 -13 12 -10 0 -13 6 -10 18 4 10 2 13 -3 7 -4 -6 -20 -16
-35 -22 -25 -11 -26 -14 -17 -55 5 -24 12 -51 15 -60 5 -16 -2 -18 -44 -18
-41 0 -51 -3 -55 -20 -3 -11 -10 -20 -16 -20 -6 0 -11 9 -11 20 0 18 -7 20
-80 20 -44 0 -80 -2 -80 -4 0 -3 39 -17 88 -32 48 -15 89 -29 91 -30 2 -2 -4
-24 -13 -50 -9 -27 -16 -80 -16 -123 l0 -76 -52 -23 c-104 -45 -127 -65 -88
-75 35 -9 22 -38 -43 -101 -89 -86 -128 -117 -160 -128 -15 -6 -32 -19 -38
-29 -10 -19 -39 -27 -39 -10 0 6 -34 26 -75 47 l-76 36 -62 -17 c-79 -22 -78
-21 -65 -50 12 -26 29 -29 215 -30 28 0 54 -3 58 -7 7 -7 -58 -28 -88 -28 -21
0 -114 -27 -139 -41 -10 -5 -25 -9 -33 -9 -18 0 -19 -9 0 -33 7 -11 11 -25 8
-33 -4 -10 3 -14 22 -14 20 0 26 4 21 15 -3 10 1 15 13 15 10 0 22 -7 25 -16
3 -8 11 -12 17 -9 7 5 8 -17 3 -76 -3 -46 -8 -86 -10 -88 -2 -2 -20 6 -41 18
-21 11 -58 31 -83 43 -25 13 -48 27 -52 33 -4 5 -10 6 -13 3 -11 -10 28 -68
45 -68 12 0 12 -2 2 -9 -11 -6 -9 -12 10 -27 45 -36 88 -97 78 -110 -6 -6 -11
-38 -12 -71 l-1 -60 -103 -16 c-56 -10 -113 -17 -128 -17 -14 0 -26 -4 -26
-10 0 -10 13 -14 41 -11 9 1 19 -7 22 -18 3 -12 33 -33 81 -56 42 -21 76 -41
76 -45 0 -4 -21 -25 -47 -46 -27 -21 -51 -43 -55 -49 -10 -13 -10 -26 0 -23 4
2 33 -23 66 -54 l58 -57 -28 -6 c-30 -6 -54 -14 -214 -71 -73 -26 -88 -34 -65
-35 17 -1 41 -3 55 -4 14 -1 114 -2 223 -3 123 -1 197 -6 197 -12 0 -5 -9 -10
-19 -10 -11 0 -22 -4 -26 -9 -3 -5 -27 -17 -53 -26 -26 -10 -56 -21 -67 -25
-11 -5 -28 -11 -37 -14 -10 -3 -18 -10 -18 -15 0 -5 28 0 63 11 34 11 82 22
107 24 25 3 61 9 80 14 57 16 60 14 60 -35 0 -45 0 -45 -35 -45 -27 0 -35 -4
-35 -18 0 -20 -18 -42 -35 -42 -7 0 -18 12 -26 28 -8 15 -18 30 -24 34 -16 12
-90 9 -103 -4 -9 -9 -15 -9 -24 0 -7 7 -29 12 -51 12 -40 0 -69 11 -100 38
-23 20 -84 42 -119 42 -19 0 -28 5 -28 17 0 25 -97 113 -117 106 -13 -5 -15
-2 -10 16 4 17 -4 33 -34 65 -21 24 -35 47 -31 51 4 5 1 5 -5 1 -15 -8 -56 17
-46 28 4 4 0 4 -9 1 -11 -4 -17 -1 -20 11 -2 11 -21 21 -54 30 -45 11 -64 25
-143 105 -50 51 -91 97 -91 101 0 18 -44 6 -93 -27 l-52 -34 5 -68 5 -68 3 56
c3 61 8 64 67 39 11 -5 52 -22 90 -38 39 -16 81 -34 95 -40 21 -9 11 -11 -55
-12 -44 -1 -74 -4 -67 -7 10 -4 10 -9 -3 -23 -15 -16 -14 -20 10 -48 16 -19
26 -44 27 -67 1 -30 7 -39 40 -57 21 -12 38 -25 38 -28 0 -4 -35 -13 -77 -20
-121 -19 -122 -20 -67 -60 26 -19 52 -38 57 -41 5 -3 -5 -34 -22 -68 -21 -40
-27 -61 -19 -61 7 -1 75 -1 150 0 76 1 138 -1 138 -4 0 -8 -123 -66 -140 -66
-8 0 7 -14 35 -30 l49 -29 -26 -10 c-14 -5 -42 -13 -62 -16 -20 -4 -36 -10
-36 -14 0 -3 58 -19 130 -36 71 -16 126 -33 122 -36 -4 -3 -52 -14 -107 -23
-55 -10 -101 -19 -103 -20 -1 -2 16 -15 38 -30 30 -20 52 -26 92 -26 29 0 85
-3 123 -8 63 -6 55 -7 -83 -12 l-154 -5 48 -33 c55 -39 55 -39 228 7 65 17
121 29 124 27 5 -6 -44 -50 -87 -78 -16 -11 -20 -18 -11 -18 8 0 -3 -11 -25
-25 -51 -31 -50 -31 203 0 113 14 212 24 221 23 9 -2 -5 -12 -31 -22 -35 -14
-48 -24 -48 -39 0 -16 -3 -17 -14 -8 -12 10 -38 2 -128 -38 l-113 -51 190 0
190 0 -85 -36 c-47 -19 -101 -42 -121 -50 l-36 -15 26 -49 c16 -30 34 -50 46
-52 17 -3 14 -10 -27 -54 -27 -28 -48 -54 -48 -59 0 -4 -11 -16 -25 -26 -15
-13 -22 -26 -19 -37 4 -12 3 -13 -3 -4 -7 9 -15 6 -33 -13 -13 -14 -21 -27
-19 -30 10 -9 135 63 145 84 7 13 13 18 16 11 2 -8 21 -2 56 19 49 29 67 30
40 3 -16 -16 1 -15 32 3 48 27 41 14 -35 -70 -78 -86 -82 -110 -9 -55 21 16
46 30 54 30 9 0 26 7 38 16 12 8 31 13 41 9 10 -3 24 1 31 10 21 25 29 17 18
-21 -11 -42 -5 -53 17 -30 9 9 24 16 33 16 9 0 29 12 44 27 15 15 28 22 28 16
0 -6 -11 -59 -25 -118 -14 -59 -24 -109 -22 -111 1 -2 31 44 65 101 35 58 66
105 69 105 14 0 -12 -112 -52 -226 -24 -68 -43 -124 -41 -124 2 0 23 32 46 71
23 39 44 69 46 67 2 -3 0 -42 -5 -89 -4 -46 -7 -85 -6 -87 1 -1 50 39 108 88
59 50 107 87 107 83 0 -4 -22 -54 -50 -110 -27 -57 -48 -103 -46 -103 1 0 37
41 80 90 43 50 80 89 82 87 3 -2 -14 -44 -36 -92 -36 -77 -40 -93 -34 -136 6
-42 9 -47 24 -39 18 10 118 123 104 118 -5 -2 -9 2 -9 7 0 6 5 9 12 7 7 -2 13
3 13 10 0 9 3 9 10 -2 8 -13 10 -12 10 3 0 9 8 17 18 18 10 0 12 3 5 6 -7 2
-13 11 -13 19 0 8 6 11 15 8 22 -9 18 -31 -14 -77 -16 -23 -43 -64 -61 -92
l-33 -50 29 26 c16 14 40 35 53 47 13 11 20 25 17 30 -8 14 32 62 52 63 11 0
12 2 5 6 -14 5 -18 23 -5 23 4 -1 17 -9 29 -19 l22 -19 -39 -91 c-22 -51 -40
-95 -40 -98 0 -4 11 4 25 17 13 12 22 27 19 31 -3 5 2 6 10 3 10 -4 20 3 28
20 6 15 14 22 18 16 4 -7 14 -4 28 8 26 23 28 32 7 32 -8 0 -15 -5 -15 -12 0
-6 -2 -9 -5 -7 -2 3 -2 15 1 27 5 19 8 19 21 7 22 -23 42 -18 90 21 24 20 46
34 48 32 3 -2 -6 -20 -19 -39 -12 -19 -31 -47 -41 -63 l-19 -28 63 32 c52 26
70 30 102 25 21 -4 41 -10 44 -15 2 -4 -11 -28 -30 -53 -36 -47 -45 -68 -22
-48 8 6 17 8 21 4 4 -4 11 -1 16 7 7 10 10 11 10 3 0 -23 70 -16 91 9 15 16
19 18 19 5 0 -8 -6 -18 -12 -20 -10 -4 -10 -6 0 -6 10 -1 7 -12 -9 -38 l-23
-37 76 53 c42 28 78 61 81 73 6 22 29 16 25 -7 -2 -7 14 -28 35 -47 l38 -33
-21 -72 c-11 -40 -20 -75 -20 -78 0 -16 25 13 70 81 28 41 52 74 55 74 2 0 -9
-32 -26 -71 -16 -40 -29 -75 -29 -78 0 -3 17 22 39 57 51 84 53 85 45 24 -6
-48 -5 -53 12 -50 14 2 20 -6 27 -40 l8 -43 23 43 c12 24 37 78 56 121 18 42
36 77 39 77 4 0 18 -30 33 -67 20 -54 28 -64 34 -49 7 19 -22 122 -38 132 -4
3 -21 -2 -39 -11 -17 -9 -33 -14 -36 -11 -3 3 7 25 23 48 16 24 32 52 36 63 5
17 6 16 7 -7 1 -14 4 -33 7 -42 5 -14 9 -13 31 4 32 25 43 25 44 3 1 -12 4
-10 9 7 5 16 9 -21 10 -100 1 -116 2 -122 15 -89 17 48 24 116 13 127 -6 6 -6
17 1 30 6 11 11 31 11 43 0 21 1 21 18 6 16 -14 17 -28 9 -133 -4 -64 -5 -119
-2 -122 3 -3 22 11 41 31 35 35 54 46 54 30 0 -5 16 -35 35 -68 l34 -60 7 33
c8 39 19 41 28 6 l7 -27 30 29 c17 16 29 22 29 14 0 -28 15 3 16 33 6 200 6
202 14 162 10 -58 40 -155 48 -155 4 0 6 44 5 97 l-3 98 20 -55 c21 -61 28
-109 17 -127 -4 -6 -1 -37 7 -70 13 -57 13 -57 19 -23 3 19 9 64 12 100 8 87
15 110 30 110 15 0 20 -31 31 -175 l6 -90 21 53 c11 28 23 52 27 52 4 0 11
-25 15 -55 8 -66 20 -64 29 4 4 28 11 53 15 56 5 3 17 -15 27 -39 11 -26 22
-40 26 -33 3 6 -2 21 -12 34 -10 13 -22 37 -25 53 -4 17 -11 32 -16 35 -5 4
-9 17 -9 31 0 14 -5 34 -10 45 -9 16 -7 19 15 19 29 0 31 11 9 46 -9 13 -14
28 -10 32 4 4 12 -2 19 -13 6 -11 23 -32 38 -47 15 -15 30 -33 33 -40 3 -7 3
3 0 22 -4 19 -15 53 -25 74 -24 50 -24 53 1 31 11 -10 20 -23 20 -28 0 -5 16
-29 35 -53 19 -23 35 -47 35 -53 0 -5 -15 -11 -32 -13 -32 -3 -31 -4 52 -59
120 -78 114 -75 101 -51 -6 12 -31 38 -56 59 -50 41 -54 54 -26 82 11 11 16
23 13 27 -10 10 33 -13 108 -59 36 -22 69 -42 73 -44 12 -7 -12 37 -31 60 -9
10 -31 25 -49 34 -45 21 -42 37 4 18 20 -8 38 -14 39 -12 8 8 -30 87 -41 87
-6 0 -18 12 -26 26 -7 14 -26 36 -41 49 -41 35 -36 51 15 50 38 0 83 -20 112
-50 26 -27 55 -47 55 -38 0 5 -13 30 -30 54 -44 65 -40 90 7 44 20 -19 39 -35
44 -35 4 0 16 -16 28 -36 12 -19 25 -32 31 -29 6 3 7 -1 4 -9 -5 -13 2 -16 35
-16 41 0 41 0 38 35 -4 33 -3 34 22 28 14 -3 38 -12 53 -19 15 -8 32 -14 38
-14 11 0 -66 116 -107 159 -13 14 -26 36 -29 49 -5 16 -14 22 -33 22 -14 0
-46 14 -71 30 -25 16 -49 30 -54 30 -6 0 -21 10 -34 23 -17 15 -26 18 -29 9
-3 -6 -9 -10 -14 -6 -5 3 -12 -2 -15 -10 -3 -9 -15 -16 -25 -16 -17 0 -18 3
-9 21 7 11 18 18 25 15 8 -3 17 0 21 5 7 11 58 7 188 -17 43 -8 96 -14 119
-14 l40 0 -23 -26 c-21 -21 -22 -27 -10 -34 8 -5 27 -10 41 -10 14 0 66 -18
114 -40 48 -23 90 -38 93 -35 9 9 -61 65 -107 86 -63 28 -43 36 26 10 58 -21
84 -25 180 -22 45 1 52 3 46 19 -3 9 18 -6 48 -33 115 -107 111 -106 73 -25
-19 39 -34 75 -34 80 0 5 -5 12 -12 16 -8 5 -9 2 -5 -10 5 -12 2 -16 -11 -14
-9 2 -16 -2 -15 -9 6 -28 -27 1 -41 37 -8 21 -20 41 -25 44 -16 10 -71 96 -71
110 0 7 -9 24 -20 37 -34 41 -36 44 -45 59 -13 21 55 -36 150 -125 71 -67 84
-75 120 -75 39 -1 42 -4 110 -95 38 -51 71 -92 73 -91 2 3 -44 175 -74 279 -4
12 -12 15 -28 11 -20 -5 -28 3 -57 53 -41 72 -51 50 -14 -33 39 -86 45 -104
37 -104 -4 0 -23 24 -42 53 -19 28 -56 82 -83 120 l-50 67 -83 0 -84 0 0 -45
c0 -31 5 -47 17 -54 25 -14 14 -20 -54 -32 -32 -6 -64 -14 -70 -17 -6 -4 -18
-31 -26 -59 l-16 -53 27 -5 c46 -9 254 -77 249 -81 -9 -9 -284 49 -320 68 -21
11 -41 17 -44 14 -3 -3 -22 3 -42 14 -20 10 -70 35 -113 54 -50 22 -78 42 -83
55 -3 12 -26 44 -51 73 -24 28 -44 55 -44 59 0 4 -6 14 -13 21 -15 16 -107
138 -123 164 -24 39 -25 1 -5 -117 11 -67 18 -126 16 -130 -7 -11 -45 2 -45
15 0 13 -28 42 -77 82 -44 35 -42 13 5 -44 45 -54 90 -127 76 -121 -61 25
-174 86 -174 95 0 6 11 36 24 67 l25 55 -45 23 c-52 28 -56 50 -18 94 15 17
33 40 41 53 29 42 35 25 28 -70 l-7 -91 28 21 c16 11 44 36 63 55 l33 35 -51
52 -50 51 42 18 c23 10 48 25 55 34 7 8 35 23 63 33 27 10 49 23 49 29 0 6 13
26 29 45 15 19 31 44 35 56 3 11 19 35 35 53 32 35 43 95 45 231 l1 65 -35 -3
c-19 -2 -59 -12 -89 -23 l-54 -20 -26 23 c-14 13 -33 33 -43 44 -23 28 -78 38
-78 14 0 -28 -23 -40 -78 -40 -31 0 -109 -15 -186 -36 -232 -64 -199 -63 -377
-18 -87 21 -159 42 -159 47 0 4 17 7 38 7 41 0 265 40 259 46 -2 3 -72 4 -155
5 -97 0 -152 4 -152 10 0 6 18 27 41 47 23 20 47 49 55 65 8 15 21 27 30 27
15 0 109 88 102 95 -5 5 -309 65 -328 65 -10 0 -25 -35 -49 -115 -18 -63 -39
-119 -45 -124 -23 -17 -93 -22 -106 -6 -9 10 -9 15 -1 15 6 0 11 5 11 10 0 19
-17 10 -28 -15 -11 -23 -9 -27 10 -34 21 -7 20 -8 -8 -16 -16 -5 -45 -9 -64
-10 -19 -1 -27 0 -17 2 9 3 15 8 12 13 -3 5 -1 11 5 15 15 9 12 25 -6 25 -11
0 -14 6 -9 23 4 12 11 26 15 31 12 12 30 -2 23 -19 -8 -23 24 -18 40 5 12 18
15 18 20 5 7 -17 37 -21 37 -5 0 6 -3 10 -8 10 -4 0 -25 18 -47 40 -22 21 -43
39 -47 40 -5 0 -8 -13 -8 -30 0 -16 -6 -33 -13 -37 -18 -11 -67 -96 -67 -116
0 -10 -9 -26 -20 -37 l-20 -20 50 -45 c30 -27 44 -45 35 -45 -10 0 -13 -5 -9
-12 5 -8 2 -9 -9 -5 -10 3 -17 2 -17 -3 0 -6 4 -10 9 -10 18 0 19 -40 1 -50
-9 -5 -19 -8 -21 -6 -2 3 -5 -10 -6 -27 -3 -43 -18 -55 -42 -33 -13 11 -21 14
-26 6 -9 -15 -28 -1 -21 16 3 8 1 14 -5 14 -12 0 -92 60 -97 72 -2 5 -8 8 -14
8 -5 0 -23 9 -39 21 -47 33 -60 20 -53 -48 4 -32 13 -75 20 -96 18 -51 4 -55
-74 -24 -42 17 -62 22 -65 14 -3 -7 -15 -1 -30 16 -31 32 -53 34 -87 7 -33
-26 -40 -25 -40 5 0 19 -5 25 -22 26 -18 1 -19 2 -5 6 9 2 15 8 12 13 -3 5 -1
11 5 15 5 3 10 21 10 38 0 18 -4 27 -8 21 -9 -14 -66 -29 -57 -14 3 5 14 10
24 10 36 0 44 25 37 115 -6 78 -4 86 15 103 26 21 39 32 135 107 42 33 99 81
127 108 29 26 56 47 62 47 6 0 24 14 40 30 35 37 26 37 -53 5 -34 -14 -66 -25
-72 -25 -6 0 -13 14 -16 30 -5 21 -12 30 -25 30 -11 0 -19 5 -19 10 0 6 5 10
11 10 13 0 2 39 -16 59 -11 11 -11 19 3 45 17 32 22 38 67 89 14 15 25 33 25
40 1 16 89 115 91 102 1 -5 5 15 9 45 4 30 24 89 44 131 20 42 36 82 36 90 0
8 14 43 30 78 28 58 29 65 15 81 -8 9 -15 30 -15 47 0 26 3 30 20 26 11 -3 23
-16 26 -29 8 -30 14 -30 38 3 14 18 16 28 8 31 -23 7 -12 22 12 16 20 -5 30 1
55 36 l30 42 -22 31 c-12 17 -32 43 -44 57 -26 28 -26 30 -12 85 6 22 10 51
10 65 -1 14 4 35 10 47 9 17 9 26 -1 38 -11 14 -10 17 6 21 14 4 25 24 38 71
11 36 30 77 43 91 30 32 29 38 -8 58 -23 11 -34 13 -42 5 -14 -14 -37 -14 -37
-1 0 6 8 10 18 11 16 0 16 1 -1 12 -109 70 -138 87 -148 87 -7 0 -20 6 -28 13
-9 7 -28 18 -44 25 -26 11 -28 10 -44 -23z m75 -15 c12 -12 22 -24 22 -28 0
-4 13 -22 29 -39 21 -24 37 -33 60 -33 21 0 31 -5 31 -15 0 -8 -7 -15 -15 -15
-18 0 -19 -12 -4 -27 11 -11 -14 -22 -82 -37 -33 -7 -44 13 -27 49 9 19 6 35
-12 82 -13 32 -28 64 -33 71 -15 20 7 14 31 -8z m-108 -60 c0 -5 -2 -10 -4
-10 -3 0 -8 5 -11 10 -3 6 -1 10 4 10 6 0 11 -4 11 -10z m-164 -117 c-10 -10
-19 5 -10 18 6 11 8 11 12 0 2 -7 1 -15 -2 -18z m272 -25 c-7 -20 -48 -23 -48
-4 0 11 9 16 26 16 16 0 24 -5 22 -12z m-328 -8 c0 -5 -4 -10 -10 -10 -5 0
-10 5 -10 10 0 6 5 10 10 10 6 0 10 -4 10 -10z m255 0 c3 -5 1 -10 -4 -10 -6
0 -11 5 -11 10 0 6 2 10 4 10 3 0 8 -4 11 -10z m-105 -40 c0 -5 -4 -10 -10
-10 -5 0 -10 5 -10 10 0 6 5 10 10 10 6 0 10 -4 10 -10z m257 -12 c40 -15 41
-19 6 -35 -35 -17 -48 -16 -63 2 -10 12 -10 18 0 30 15 18 15 18 57 3z m-327
-8 c0 -5 -2 -10 -4 -10 -3 0 -8 5 -11 10 -3 6 -1 10 4 10 6 0 11 -4 11 -10z
m-69 -63 c-1 -12 -15 -9 -19 4 -3 6 1 10 8 8 6 -3 11 -8 11 -12z m-31 -87 c0
-5 -2 -10 -4 -10 -3 0 -8 5 -11 10 -3 6 -1 10 4 10 6 0 11 -4 11 -10z m257 -5
c19 -13 20 -19 11 -45 -12 -35 -32 -38 -67 -11 -24 18 -24 20 -8 45 20 30 34
32 64 11z m-413 -91 c7 -19 -1 -34 -19 -34 -21 0 -28 19 -15 35 16 19 26 19
34 -1z m196 1 c0 -8 -7 -15 -15 -15 -16 0 -20 12 -8 23 11 12 23 8 23 -8z
m258 -27 c-4 -55 -28 -64 -28 -10 0 21 3 42 7 45 16 17 24 4 21 -35z m-45 -45
c2 -32 3 -59 2 -61 -5 -6 -81 36 -93 51 -10 12 -5 19 25 40 21 14 43 26 49 26
7 1 14 -23 17 -56z m195 25 c18 -18 14 -38 -7 -38 -23 0 -35 15 -27 35 7 18
18 19 34 3z m-620 -74 c-9 -9 -21 -13 -27 -10 -20 13 -11 26 16 26 25 0 26 -1
11 -16z m422 -39 c0 -8 -7 -15 -15 -15 -8 0 -15 7 -15 15 0 8 7 15 15 15 8 0
15 -7 15 -15z m-490 -25 c0 -5 -4 -10 -10 -10 -5 0 -10 5 -10 10 0 6 5 10 10
10 6 0 10 -4 10 -10z m600 -10 c0 -5 -4 -10 -10 -10 -5 0 -10 5 -10 10 0 6 5
10 10 10 6 0 10 -4 10 -10z m-250 -60 c0 -5 -2 -10 -4 -10 -3 0 -8 5 -11 10
-3 6 -1 10 4 10 6 0 11 -4 11 -10z m-200 -15 c0 -8 -4 -15 -10 -15 -5 0 -7 7
-4 15 4 8 8 15 10 15 2 0 4 -7 4 -15z m-73 -71 c-3 -3 -12 -4 -19 -1 -8 3 -5
6 6 6 11 1 17 -2 13 -5z m217 -193 c19 -30 -29 -53 -63 -32 -12 8 -12 12 -2
25 15 17 56 22 65 7z m-586 -33 c2 -19 -1 -28 -10 -28 -20 0 -38 21 -38 43 0
32 44 18 48 -15z m116 -43 c4 -10 -1 -15 -14 -15 -11 0 -20 7 -20 15 0 8 6 15
14 15 8 0 16 -7 20 -15z m-305 -68 c-10 -23 -13 -24 -27 -11 -12 13 -13 19 -2
40 12 21 16 22 27 11 11 -11 12 -19 2 -40z m408 36 c6 -16 -45 -29 -59 -15 -6
6 -7 15 -3 22 9 14 57 9 62 -7z m288 6 c12 -19 -5 -23 -22 -6 -16 16 -16 17
-1 17 9 0 20 -5 23 -11z m-515 -25 c0 -14 -4 -23 -10 -19 -5 3 -10 15 -10 26
0 10 5 19 10 19 6 0 10 -12 10 -26z m254 -3 c3 -5 -1 -14 -8 -20 -16 -13 -32
2 -21 19 8 12 22 13 29 1z m-85 -100 c-15 -5 -22 6 -14 19 6 9 10 9 16 -1 5
-8 4 -15 -2 -18z m-254 -21 c-3 -5 -10 -10 -16 -10 -5 0 -9 5 -9 10 0 6 7 10
16 10 8 0 12 -4 9 -10z m450 -20 c8 -13 -40 -24 -62 -15 -16 7 -15 9 7 15 36
11 48 11 55 0z m28 -75 c-26 -19 -29 -10 -7 22 16 24 19 25 22 10 2 -10 -5
-25 -15 -32z m-67 -40 c6 -16 -12 -45 -27 -45 -10 0 -12 44 -2 53 11 11 23 8
29 -8z m-406 -15 c0 -5 -4 -10 -10 -10 -5 0 -10 5 -10 10 0 6 5 10 10 10 6 0
10 -4 10 -10z m350 -55 c0 -8 -4 -15 -10 -15 -5 0 -10 7 -10 15 0 8 5 15 10
15 6 0 10 -7 10 -15z m-356 -31 c10 -4 16 -18 16 -41 0 -30 -3 -34 -22 -31
-25 3 -41 45 -25 66 11 14 10 14 31 6z m-34 -116 c0 -16 -3 -19 -11 -11 -6 6
-8 16 -5 22 11 17 16 13 16 -11z m-110 -18 c0 -5 -7 -10 -16 -10 -8 0 -12 5
-9 10 3 6 10 10 16 10 5 0 9 -4 9 -10z m390 -64 c0 -15 -14 -35 -21 -30 -15 9
-10 34 6 34 8 0 15 -2 15 -4z m-1053 -48 c-3 -8 -6 -5 -6 6 -1 11 2 17 5 13 3
-3 4 -12 1 -19z m956 -32 c-10 -13 -39 -38 -64 -56 -47 -31 -47 -32 -80 -14
-19 9 -44 27 -57 39 -12 13 -37 30 -55 38 -30 15 -24 16 121 16 l153 1 -18
-24z m117 -26 c-19 -16 -51 -37 -70 -46 -19 -9 -48 -28 -63 -41 -28 -22 -30
-23 -58 -6 -38 23 -37 31 9 39 20 3 62 18 92 32 132 61 138 62 90 22z m1194
-41 c-3 -5 -10 -7 -15 -3 -5 3 -7 10 -3 15 3 5 10 7 15 3 5 -3 7 -10 3 -15z
m130 12 c3 -5 -1 -11 -9 -15 -9 -3 -15 0 -15 9 0 16 16 20 24 6z m-2394 -11
c11 -7 12 -12 3 -21 -13 -13 -33 -4 -33 17 0 16 9 18 30 4z m1316 -42 c-2 -52
-2 -52 -42 -61 -166 -34 -324 -63 -317 -57 15 14 104 60 115 60 6 0 32 12 57
27 51 31 160 81 177 82 8 1 11 -17 10 -51z m704 42 c0 -5 -4 -10 -10 -10 -5 0
-10 5 -10 10 0 6 5 10 10 10 6 0 10 -4 10 -10z m-83 -142 c-3 -8 -6 -5 -6 6
-1 11 2 17 5 13 3 -3 4 -12 1 -19z m-1497 2 c0 -5 -4 -10 -9 -10 -6 0 -13 5
-16 10 -3 6 1 10 9 10 9 0 16 -4 16 -10z m1693 -4 c7 -16 -1 -26 -20 -26 -7 0
-13 9 -13 20 0 23 25 27 33 6z m107 -1 c0 -8 -7 -15 -15 -15 -8 0 -15 7 -15
15 0 8 7 15 15 15 8 0 15 -7 15 -15z m-982 -17 c21 -21 13 -38 -18 -38 -33 0
-35 3 -20 31 12 22 21 24 38 7z m-1068 -18 c0 -5 -4 -10 -10 -10 -5 0 -10 5
-10 10 0 6 5 10 10 10 6 0 10 -4 10 -10z m340 -5 c0 -8 -4 -15 -10 -15 -5 0
-10 7 -10 15 0 8 5 15 10 15 6 0 10 -7 10 -15z m80 -35 c-6 -11 -17 -20 -25
-20 -8 0 -15 9 -15 20 0 15 7 20 25 20 23 0 24 -2 15 -20z m2605 10 c-3 -5
-10 -10 -16 -10 -5 0 -9 5 -9 10 0 6 7 10 16 10 8 0 12 -4 9 -10z m-3085 -31
c0 -5 -7 -9 -15 -9 -15 0 -20 12 -9 23 8 8 24 -1 24 -14z m2053 -29 l62 -18
-107 -1 c-60 -1 -108 2 -108 6 0 3 8 15 17 25 18 21 28 20 136 -12z m-1133
-10 c0 -5 -4 -10 -10 -10 -5 0 -10 5 -10 10 0 6 5 10 10 10 6 0 10 -4 10 -10z
m-30 -45 c0 -16 -17 -19 -44 -9 -22 9 -10 24 20 24 15 0 24 -6 24 -15z m120
-6 c0 -5 -4 -9 -10 -9 -5 0 -10 7 -10 16 0 8 5 12 10 9 6 -3 10 -10 10 -16z
m85 -14 c-31 -25 -20 -34 17 -14 12 7 18 7 14 1 -3 -6 0 -13 6 -15 7 -3 -5 -6
-27 -6 -22 -1 -47 -6 -55 -12 -11 -8 -5 -9 25 -4 29 4 36 3 25 -4 -20 -14 -70
-14 -70 -1 0 6 7 13 16 17 12 5 13 7 3 14 -8 5 -17 3 -22 -4 -6 -9 -7 -8 -5 2
2 8 11 15 20 17 8 1 28 9 44 17 41 23 44 20 9 -8z m2213 3 c-6 -18 -28 -21
-28 -4 0 9 7 16 16 16 9 0 14 -5 12 -12z m-530 -29 c2 -23 2 -23 -13 -5 -18
24 -20 39 -2 34 6 -3 13 -15 15 -29z m-2678 1 c0 -11 -6 -20 -14 -20 -21 0
-31 21 -15 31 22 14 29 11 29 -11z m410 -10 c0 -5 -7 -10 -15 -10 -8 0 -15 5
-15 10 0 6 7 10 15 10 8 0 15 -4 15 -10z m508 -21 c3 -18 -76 -45 -91 -30 -6
6 -1 14 14 22 22 11 23 11 10 -4 -7 -10 -10 -17 -5 -17 15 0 30 14 37 33 8 21
31 18 35 -4z m1347 1 c-3 -5 -13 -10 -21 -10 -8 0 -14 5 -14 10 0 6 9 10 21
10 11 0 17 -4 14 -10z m-2395 -15 c0 -8 -4 -15 -10 -15 -5 0 -10 7 -10 15 0 8
5 15 10 15 6 0 10 -7 10 -15z m940 -25 c0 -5 -4 -10 -9 -10 -5 0 -18 -3 -28
-6 -16 -5 -16 -4 1 10 23 18 36 20 36 6z m-400 -25 c0 -8 -4 -15 -9 -15 -13 0
-22 16 -14 24 11 11 23 6 23 -9z m1278 6 c17 -1 15 -21 -2 -21 -7 0 -19 -7
-26 -15 -11 -13 -11 -20 0 -39 14 -27 6 -48 -15 -40 -10 4 -18 -10 -30 -53 -9
-32 -18 -64 -21 -71 -2 -7 3 -27 11 -43 9 -16 13 -34 10 -40 -4 -5 -1 -8 5 -7
6 2 17 -14 24 -34 13 -35 12 -37 -8 -40 -13 -2 -22 -12 -24 -25 -3 -23 -34
-41 -40 -24 -6 17 -30 13 -84 -14 -27 -14 -60 -25 -72 -25 -12 0 -31 -7 -42
-15 -32 -25 -42 -17 -54 43 -16 76 -36 129 -66 175 -25 38 -24 47 8 82 32 35
112 132 130 158 14 20 27 25 85 30 37 3 69 9 71 15 2 8 29 9 140 3z m702 5 c0
-3 -4 -8 -10 -11 -5 -3 -10 -1 -10 4 0 6 5 11 10 11 6 0 10 -2 10 -4z m590 -6
c0 -5 -4 -10 -10 -10 -5 0 -10 5 -10 10 0 6 5 10 10 10 6 0 10 -4 10 -10z
m150 -8 c-8 -3 -31 -22 -51 -43 -20 -22 -39 -39 -43 -39 -4 0 -6 14 -4 31 3
27 9 33 53 48 28 10 52 16 55 13 3 -3 -2 -7 -10 -10z m-2045 -2 c3 -5 -1 -10
-9 -10 -9 0 -16 5 -16 10 0 6 4 10 9 10 6 0 13 -4 16 -10z m-825 -9 c0 -19
-22 -23 -38 -7 -15 15 -14 16 11 16 15 0 27 -4 27 -9z m860 -10 c0 -6 -4 -13
-10 -16 -5 -3 -10 1 -10 9 0 9 5 16 10 16 6 0 10 -4 10 -9z m-418 -18 c22 -19
24 -43 4 -43 -15 0 -46 26 -46 39 0 9 11 21 18 21 3 0 14 -7 24 -17z m-527 -3
c11 -17 -5 -32 -21 -19 -7 6 -11 15 -8 20 7 12 21 11 29 -1z m2614 -16 c61
-23 71 -30 71 -50 0 -13 -2 -24 -4 -24 -11 0 -156 89 -156 96 0 8 21 3 89 -22z
m-2449 -40 c0 -8 -7 -14 -15 -14 -15 0 -21 21 -9 33 10 9 24 -2 24 -19z m1690
-58 c0 -11 -19 -15 -25 -6 -3 5 1 10 9 10 9 0 16 -2 16 -4z m-1000 -36 c0 -5
-2 -10 -4 -10 -3 0 -8 5 -11 10 -3 6 -1 10 4 10 6 0 11 -4 11 -10z m787 -26
c-3 -3 -12 -4 -19 -1 -8 3 -5 6 6 6 11 1 17 -2 13 -5z m15 -51 l166 -26 -41
-49 c-44 -50 -61 -54 -98 -22 -8 8 -24 14 -35 14 -10 0 -30 12 -43 25 -13 14
-35 28 -49 32 -31 8 -100 53 -81 53 8 0 89 -12 181 -27z m219 -45 c14 -18 21
-20 27 -10 6 9 16 10 32 4 23 -9 23 -9 -8 -15 -50 -10 -38 -22 26 -24 43 -2
53 0 39 8 -9 5 -23 7 -30 3 -8 -5 -9 -4 -2 4 12 13 125 -6 125 -20 0 -5 -11
-6 -24 -2 -14 3 -33 1 -43 -5 -15 -9 -13 -10 12 -5 35 8 33 4 -18 -31 -21 -14
-43 -23 -48 -20 -5 3 -6 -1 -3 -9 4 -9 -5 -20 -25 -30 -22 -12 -29 -21 -24
-34 6 -14 4 -15 -9 -5 -8 7 -18 10 -21 7 -6 -6 -9 10 -27 126 -14 93 -13 97
21 58z m-1781 2 c0 -5 -7 -10 -15 -10 -8 0 -15 5 -15 10 0 6 7 10 15 10 8 0
15 -4 15 -10z m518 -18 c2 -7 -3 -12 -12 -12 -9 0 -16 7 -16 16 0 17 22 14 28
-4z m392 3 c0 -8 -4 -15 -9 -15 -13 0 -22 16 -14 24 11 11 23 6 23 -9z m-865
-14 c3 -5 1 -12 -5 -16 -5 -3 -10 1 -10 9 0 18 6 21 15 7z m225 -1 c0 -5 -7
-10 -15 -10 -8 0 -15 5 -15 10 0 6 7 10 15 10 8 0 15 -4 15 -10z m1205 -10
c18 -20 17 -20 -24 -20 -39 0 -41 1 -31 20 6 11 17 20 24 20 7 0 21 -9 31 -20z
m-785 -6 c0 -8 -4 -12 -10 -9 -5 3 -10 10 -10 16 0 5 5 9 10 9 6 0 10 -7 10
-16z m225 -50 c-33 -14 -73 -31 -90 -39 -16 -7 -41 -18 -55 -23 -18 -8 -20
-11 -7 -11 34 -2 67 -32 67 -62 0 -24 -4 -29 -25 -29 -28 0 -50 28 -58 77 -5
28 -1 36 31 63 20 17 42 35 47 40 6 5 42 9 80 9 l70 0 -60 -25z m695 -11 c-73
-96 -130 -174 -130 -180 0 -3 -19 -30 -42 -58 -24 -29 -51 -67 -61 -85 l-18
-33 -29 39 c-16 22 -30 43 -30 47 0 4 -11 20 -25 35 -38 41 -39 56 -5 93 16
19 30 39 30 46 0 7 8 20 18 30 10 10 30 35 45 56 l28 37 120 0 121 0 -22 -27z
m895 17 c-3 -5 -10 -10 -16 -10 -5 0 -9 5 -9 10 0 6 7 10 16 10 8 0 12 -4 9
-10z m-2210 -20 c-3 -5 -10 -10 -16 -10 -5 0 -9 5 -9 10 0 6 7 10 16 10 8 0
12 -4 9 -10z m1389 -32 c19 -18 46 -43 61 -55 25 -21 26 -21 6 -28 -28 -9 -26
-23 4 -35 34 -13 34 -47 0 -56 -27 -7 -55 10 -55 32 0 8 -4 14 -10 14 -5 0
-10 -4 -10 -10 0 -14 -42 -50 -52 -44 -5 3 -7 0 -6 -7 2 -6 -3 -14 -11 -17 -8
-3 -11 0 -7 6 4 7 2 20 -3 31 -8 14 -7 22 4 31 8 7 15 23 15 36 0 13 5 24 11
24 6 0 8 -7 5 -16 -5 -14 -4 -15 9 -4 12 10 13 16 4 26 -6 8 -16 11 -21 8 -6
-4 -8 1 -5 12 3 11 8 34 12 52 4 17 9 32 11 32 2 0 20 -15 38 -32z m-664 -18
c0 -19 -11 -26 -23 -14 -8 8 3 34 14 34 5 0 9 -9 9 -20z m-370 0 c0 -5 -11
-17 -24 -26 -14 -8 -27 -23 -29 -32 -4 -15 -5 -15 -6 -1 0 9 8 28 20 43 21 26
39 34 39 16z m1810 -20 c0 -5 -4 -10 -9 -10 -6 0 -13 5 -16 10 -3 6 1 10 9 10
9 0 16 -4 16 -10z m-2105 -9 c7 -12 -12 -24 -25 -16 -11 7 -4 25 10 25 5 0 11
-4 15 -9z m284 -32 c-22 -22 -42 -39 -44 -37 -6 6 63 78 74 78 6 0 -7 -18 -30
-41z m586 22 c10 -18 -17 -23 -33 -7 -15 15 -15 16 5 16 12 0 24 -4 28 -9z
m-987 -28 c-2 -10 -10 -18 -18 -18 -8 0 -16 8 -18 18 -2 12 3 17 18 17 15 0
20 -5 18 -17z m258 -7 c18 -19 18 -32 -2 -40 -22 -9 -34 1 -34 30 0 27 14 31
36 10z m434 -21 c0 -8 -4 -15 -10 -15 -5 0 -10 7 -10 15 0 8 5 15 10 15 6 0
10 -7 10 -15z m1910 5 c0 -5 -4 -10 -10 -10 -5 0 -10 5 -10 10 0 6 5 10 10 10
6 0 10 -4 10 -10z m-2287 -34 c-10 -13 -20 -22 -22 -20 -4 4 29 44 36 44 2 0
-4 -11 -14 -24z m227 6 c0 -14 -11 -21 -26 -15 -21 8 -17 23 6 23 11 0 20 -4
20 -8z m1413 -162 c-12 -11 -133 -22 -133 -13 0 4 22 36 48 70 26 35 56 75 67
90 l20 28 3 -84 c2 -46 -1 -87 -5 -91z m285 48 c23 -27 42 -53 42 -58 0 -15
-32 -12 -69 8 -28 14 -37 27 -52 77 -26 82 -24 95 9 55 15 -19 46 -56 70 -82z
m-2430 85 c5 -10 7 -24 5 -30 -6 -18 -42 -16 -49 2 -15 38 26 63 44 28z m1941
-53 c-10 -38 -19 -72 -19 -74 0 -5 -47 -20 -87 -29 -21 -5 -22 -4 -8 22 7 14
29 42 48 61 18 19 42 47 52 63 29 46 35 30 14 -43z m-1486 19 c-11 -12 -27
-19 -34 -17 -9 3 -3 11 16 21 40 22 43 21 18 -4z m97 3 c0 -4 -9 -13 -20 -20
-19 -12 -20 -11 -8 8 13 20 28 27 28 12z m1940 -1 c0 -12 -20 -25 -27 -18 -7
7 6 27 18 27 5 0 9 -4 9 -9z m-717 -73 c6 -46 6 -48 -18 -48 -15 0 -25 6 -25
15 0 14 32 87 35 82 1 -1 5 -23 8 -49z m-1370 22 c-6 -22 -21 -35 -30 -26 -5
5 24 46 33 46 1 0 0 -9 -3 -20z m2462 -32 c44 -17 84 -34 88 -38 5 -4 -3 -20
-16 -36 l-24 -28 -64 55 c-106 91 -101 89 -93 41 7 -44 -3 -54 -26 -27 -10 12
-10 21 0 45 14 35 12 35 135 -12z m-1305 -9 c0 -9 -6 -21 -13 -27 -10 -8 -12
-2 -9 30 3 28 7 36 13 27 5 -8 9 -21 9 -30z m-1070 11 c0 -5 -2 -10 -4 -10 -3
0 -8 5 -11 10 -3 6 -1 10 4 10 6 0 11 -4 11 -10z m2964 -51 c-8 -13 -24 -1
-24 18 0 13 3 13 15 3 8 -7 12 -16 9 -21z m-1504 17 c0 -2 -7 -6 -15 -10 -8
-3 -15 -1 -15 4 0 6 7 10 15 10 8 0 15 -2 15 -4z m-1010 -46 c0 -34 -4 -42
-26 -50 -33 -13 -34 -13 -34 5 0 19 0 19 -41 -2 -18 -9 -28 -18 -21 -21 7 -2
19 1 26 8 8 6 17 7 20 2 3 -5 -20 -16 -50 -26 -30 -9 -60 -26 -67 -37 -12 -20
-42 -26 -52 -9 -3 5 8 16 24 25 75 38 106 66 103 91 -3 24 11 33 23 14 10 -16
29 -11 55 14 34 34 40 32 40 -14z m285 30 c-3 -5 -10 -10 -16 -10 -5 0 -9 5
-9 10 0 6 7 10 16 10 8 0 12 -4 9 -10z m1575 -20 c0 -5 -5 -10 -11 -10 -5 0
-7 5 -4 10 3 6 8 10 11 10 2 0 4 -4 4 -10z m-112 -17 c-10 -2 -26 -2 -35 0
-10 3 -2 5 17 5 19 0 27 -2 18 -5z m62 -53 c0 -22 -33 -27 -59 -11 -11 7 -6
12 20 19 19 6 35 11 37 11 1 1 2 -8 2 -19z m-620 -5 c0 -8 -8 -15 -19 -15 -10
0 -24 7 -31 15 -11 13 -8 15 19 15 21 0 31 -5 31 -15z m760 -65 c0 -4 16 -11
35 -14 45 -9 52 -23 25 -48 l-22 -20 -16 23 c-9 12 -24 31 -34 41 -22 22 -24
40 -3 32 8 -4 15 -10 15 -14z m-1945 0 c-3 -5 -12 -10 -18 -10 -7 0 -6 4 3 10
19 12 23 12 15 0z m1135 -6 c0 -8 -5 -12 -10 -9 -6 4 -8 11 -5 16 9 14 15 11
15 -7z m-930 -35 c0 -10 -3 -19 -7 -19 -5 0 -18 -3 -30 -6 -18 -5 -25 -1 -32
17 -12 32 -8 36 33 31 27 -3 36 -9 36 -23z m-699 -6 c-8 -15 -10 -15 -11 -2 0
17 10 32 18 25 2 -3 -1 -13 -7 -23z m2186 21 c-3 -3 -12 -4 -19 -1 -8 3 -5 6
6 6 11 1 17 -2 13 -5z m-1563 -43 c3 -4 -18 -21 -46 -35 -43 -23 -49 -24 -34
-8 9 11 29 23 44 27 20 5 23 8 11 16 -12 7 -11 9 3 9 9 0 19 -4 22 -9z m234
-3 c-2 -6 -10 -14 -16 -16 -7 -2 -10 2 -6 12 7 18 28 22 22 4z m-871 -30 c-3
-7 -5 -2 -5 12 0 14 2 19 5 13 2 -7 2 -19 0 -25z m808 11 c10 -16 -4 -59 -19
-59 -13 0 -28 55 -18 65 9 9 31 5 37 -6z m-150 -58 c-3 -6 -11 -11 -17 -11 -6
0 -6 6 2 15 14 17 26 13 15 -4z m2026 -13 c11 -21 11 -22 -4 -9 -10 7 -17 17
-17 22 0 15 9 10 21 -13z m-1336 -9 c10 -15 2 -19 -24 -12 -17 4 -19 8 -9 14
18 12 26 11 33 -2z m1405 1 c0 -5 -4 -10 -10 -10 -5 0 -10 5 -10 10 0 6 5 10
10 10 6 0 10 -4 10 -10z m-433 -77 c15 -24 35 -45 44 -48 20 -7 32 -46 19 -59
-12 -12 -20 -1 -90 107 -38 59 -44 74 -26 60 13 -10 37 -37 53 -60z m-1837 15
c0 -19 -2 -20 -10 -8 -13 19 -13 30 0 30 6 0 10 -10 10 -22z m1623 -78 c5 -53
4 -61 -6 -46 -7 10 -21 30 -33 45 -33 41 -37 71 -11 81 32 12 44 -6 50 -80z
m-793 76 c0 -3 -6 -11 -12 -18 -7 -8 -17 -21 -23 -29 -31 -48 -79 -108 -83
-104 -11 11 52 137 72 145 23 10 46 12 46 6z m1385 -26 c3 -5 2 -10 -4 -10 -5
0 -13 5 -16 10 -3 6 -2 10 4 10 5 0 13 -4 16 -10z m-885 -39 l26 -6 -42 -104
-41 -103 -22 113 c-28 149 -29 143 17 123 20 -9 48 -19 62 -23z m-1013 -53
c-3 -8 -6 -5 -6 6 -1 11 2 17 5 13 3 -3 4 -12 1 -19z m1523 -8 c0 -5 -4 -10
-10 -10 -5 0 -10 5 -10 10 0 6 5 10 10 10 6 0 10 -4 10 -10z m-1026 -41 c-3
-5 -8 -21 -10 -36 -3 -14 -11 -38 -19 -52 l-14 -26 -1 31 c0 17 -3 45 -6 62
-5 26 -3 31 17 34 29 5 41 0 33 -13z m793 13 c8 -5 12 -29 11 -63 0 -29 -3
-47 -6 -39 -3 8 -10 18 -16 22 -8 5 -7 8 2 8 6 0 12 5 12 11 0 5 -5 7 -10 4
-12 -7 -33 42 -24 56 6 11 15 11 31 1z"/>
<path d="M2680 1579 c-19 -10 -28 -18 -20 -19 9 0 26 8 40 17 20 14 23 14 18
1 -4 -8 -3 -21 2 -27 5 -9 8 -4 8 13 0 35 -7 37 -48 15z"/>
<path d="M2567 1526 c-59 -29 -67 -36 -38 -36 12 0 19 4 16 10 -3 6 3 10 15
10 21 0 80 26 80 35 0 11 -27 3 -73 -19z"/>
<path d="M2617 1503 c-12 -11 -8 -23 8 -23 8 0 15 7 15 15 0 16 -12 20 -23 8z"/>
<path d="M2475 1480 c-3 -6 1 -7 9 -4 18 7 21 14 7 14 -6 0 -13 -4 -16 -10z"/>
<path d="M2730 1480 c0 -5 5 -10 11 -10 5 0 7 5 4 10 -3 6 -8 10 -11 10 -2 0
-4 -4 -4 -10z"/>
<path d="M3060 1366 c0 -17 36 -40 43 -29 3 5 -6 16 -19 26 -20 15 -24 16 -24
3z"/>
<path d="M2357 1034 c-9 -10 2 -24 18 -24 9 0 12 6 9 15 -6 16 -17 19 -27 9z"/>
<path d="M2248 963 c7 -3 16 -2 19 1 4 3 -2 6 -13 5 -11 0 -14 -3 -6 -6z"/>
<path d="M2057 3633 c-12 -11 -8 -23 8 -23 8 0 15 7 15 15 0 16 -12 20 -23 8z"/>
<path d="M1750 3523 c0 -4 5 -15 10 -23 8 -13 10 -13 10 2 0 9 -4 20 -10 23
-5 3 -10 3 -10 -2z"/>
<path d="M616 3506 c3 -9 12 -16 19 -16 7 0 32 -11 56 -24 24 -13 59 -27 76
-31 18 -3 35 -11 39 -16 3 -5 32 -22 65 -38 l60 -28 29 43 c34 48 35 52 18 51
-31 -3 -253 41 -350 69 -13 4 -16 1 -12 -10z"/>
<path d="M1720 3500 c0 -5 5 -10 10 -10 6 0 10 5 10 10 0 6 -4 10 -10 10 -5 0
-10 -4 -10 -10z"/>
<path d="M1696 3481 c10 -10 72 -26 63 -17 -4 4 -21 11 -39 16 -19 5 -29 6
-24 1z"/>
<path d="M1770 3460 c0 -11 4 -20 9 -20 5 0 7 9 4 20 -3 11 -7 20 -9 20 -2 0
-4 -9 -4 -20z"/>
<path d="M5540 3471 c0 -5 20 -23 45 -40 25 -17 45 -26 45 -21 0 4 3 16 6 25
4 9 3 15 -2 14 -5 -1 -26 5 -46 14 -43 20 -48 20 -48 8z"/>
<path d="M873 3300 c-6 -16 -7 -30 -2 -30 5 0 10 8 10 18 1 9 5 4 9 -13 7 -27
8 -28 8 -5 0 14 -3 33 -6 43 -6 15 -9 13 -19 -13z"/>
<path d="M911 3314 c0 -11 3 -14 6 -6 3 7 2 16 -1 19 -3 4 -6 -2 -5 -13z"/>
<path d="M818 3312 c-19 -4 -24 -17 -10 -26 11 -7 35 10 31 21 -2 5 -12 7 -21
5z"/>
<path d="M765 3290 c-3 -5 -1 -10 4 -10 6 0 11 5 11 10 0 6 -2 10 -4 10 -3 0
-8 -4 -11 -10z"/>
<path d="M650 3279 c0 -5 -4 -7 -10 -4 -5 3 -10 1 -10 -4 0 -17 27 -13 34 4 3
8 1 15 -4 15 -6 0 -10 -5 -10 -11z"/>
<path d="M817 3272 c-3 -4 -2 -15 2 -24 6 -17 7 -17 18 1 10 15 9 20 -2 25 -8
3 -16 2 -18 -2z"/>
<path d="M1480 3270 c0 -5 -17 -18 -37 -27 -55 -27 -51 -38 13 -35 44 3 54 7
50 19 -3 8 -6 23 -6 34 0 10 -4 19 -10 19 -5 0 -10 -4 -10 -10z"/>
<path d="M730 3260 c0 -5 5 -10 10 -10 6 0 10 5 10 10 0 6 -4 10 -10 10 -5 0
-10 -4 -10 -10z"/>
<path d="M778 3263 c7 -3 16 -2 19 1 4 3 -2 6 -13 5 -11 0 -14 -3 -6 -6z"/>
<path d="M890 3186 c0 -26 -5 -35 -21 -39 -20 -5 -18 -27 2 -27 6 0 7 5 4 10
-3 6 1 10 9 10 12 0 16 10 16 40 0 22 -2 40 -5 40 -3 0 -5 -15 -5 -34z"/>
<path d="M3631 3200 c0 -8 6 -40 14 -70 8 -30 15 -69 15 -86 0 -30 57 -304 65
-312 2 -3 9 7 15 22 5 15 19 36 30 48 23 26 24 26 5 58 -14 25 -14 25 -15 3 0
-28 -16 -30 -23 -3 -3 12 1 24 11 30 15 8 15 11 2 20 -8 5 -12 10 -8 10 9 0
-11 58 -47 136 -15 32 -36 82 -46 109 -9 28 -18 43 -18 35z"/>
<path d="M771 3184 c0 -11 3 -14 6 -6 3 7 2 16 -1 19 -3 4 -6 -2 -5 -13z"/>
<path d="M1355 3180 c-3 -5 -4 -14 0 -19 7 -12 -33 -41 -56 -41 -10 0 -19 4
-21 10 -4 14 -95 14 -148 0 -74 -19 -123 -31 -152 -37 -39 -8 -35 -23 6 -23
19 0 67 -11 108 -25 40 -14 81 -25 90 -25 9 0 18 -5 20 -11 2 -7 25 -12 51
-13 26 -1 47 -4 47 -8 0 -5 10 -8 23 -8 20 1 20 2 5 11 -13 7 -18 23 -18 55 0
38 4 46 25 56 26 12 27 14 30 61 2 29 0 33 -10 17z m-240 -85 l-40 -12 63 -23
c34 -12 62 -24 62 -26 0 -6 -64 8 -95 21 -16 7 -46 17 -65 23 l-35 10 30 1
c17 1 37 6 45 11 8 5 29 9 45 9 29 -1 28 -2 -10 -14z m76 -12 c-11 -5 -11 -7
0 -15 11 -7 9 -8 -4 -4 -10 3 -26 6 -35 7 -10 1 -7 4 8 9 28 9 52 11 31 3z
m109 -45 c0 -10 -4 -18 -10 -18 -5 0 -10 15 -10 33 0 24 3 28 10 17 5 -8 10
-23 10 -32z"/>
<path d="M840 3170 c20 -13 40 -13 40 0 0 6 -12 10 -27 10 -22 0 -25 -2 -13
-10z"/>
<path d="M1320 3169 c0 -5 5 -7 10 -4 6 3 10 8 10 11 0 2 -4 4 -10 4 -5 0 -10
-5 -10 -11z"/>
<path d="M1410 3171 c0 -5 7 -11 15 -15 8 -3 15 -1 15 3 0 5 -7 11 -15 15 -8
3 -15 1 -15 -3z"/>
<path d="M1370 3041 c0 -5 5 -13 10 -16 6 -3 10 -2 10 4 0 5 -4 13 -10 16 -5
3 -10 2 -10 -4z"/>
<path d="M673 2990 c15 -12 40 -26 55 -30 l27 -8 -25 -2 c-25 -1 -25 -1 -2
-10 12 -5 29 -7 37 -4 8 4 15 1 15 -5 0 -6 6 -11 14 -11 8 0 16 -7 19 -14 3
-8 22 -18 42 -22 32 -6 39 -13 60 -58 41 -88 43 -89 127 -82 40 3 82 6 93 7
51 1 155 23 143 30 -7 5 -22 6 -34 3 -15 -4 -26 1 -36 14 -8 12 -27 26 -43 33
-17 6 -46 19 -65 27 -51 22 -101 35 -137 34 -21 0 -32 5 -36 17 -2 11 -28 26
-68 39 -35 12 -84 30 -109 38 -25 9 -58 19 -75 22 l-30 5 28 -23z m387 -180
c0 -5 -4 -10 -10 -10 -5 0 -10 5 -10 10 0 6 5 10 10 10 6 0 10 -4 10 -10z"/>
<path d="M2640 2989 c-7 -11 -10 -23 -7 -25 2 -2 9 7 15 21 14 30 7 33 -8 4z"/>
<path d="M660 2950 c0 -5 5 -10 10 -10 6 0 10 5 10 10 0 6 -4 10 -10 10 -5 0
-10 -4 -10 -10z"/>
<path d="M1460 2932 c0 -11 35 -39 59 -47 12 -3 21 -11 21 -16 0 -5 7 -9 15
-9 22 0 18 18 -5 25 -11 3 -20 13 -20 21 0 8 4 12 10 9 5 -3 7 0 4 8 -2 7 -11
14 -18 14 -8 0 -12 -6 -9 -14 7 -18 -12 -17 -31 2 -16 16 -26 19 -26 7z"/>
<path d="M1555 2930 c3 -5 8 -10 11 -10 2 0 4 5 4 10 0 6 -5 10 -11 10 -5 0
-7 -4 -4 -10z"/>
<path d="M6570 2923 c-19 -2 -83 -13 -143 -23 -59 -11 -113 -17 -120 -14 -8 3
-27 -21 -50 -62 -37 -66 -42 -100 -9 -56 13 16 26 22 49 20 19 -1 61 13 114
39 83 40 104 49 187 74 24 7 45 16 48 21 5 8 -11 8 -76 1z"/>
<path d="M6588 2823 c7 -3 16 -2 19 1 4 3 -2 6 -13 5 -11 0 -14 -3 -6 -6z"/>
<path d="M4606 2787 c3 -9 10 -17 15 -17 5 0 8 -3 8 -7 -3 -21 2 -56 8 -50 8
8 53 -52 53 -71 0 -22 20 -53 30 -47 6 4 6 13 1 23 -5 9 -15 31 -21 49 -7 17
-18 34 -26 37 -8 3 -14 13 -14 21 0 9 -4 13 -10 10 -5 -3 -10 0 -10 9 0 8 6
17 13 19 8 4 8 6 -2 6 -8 1 -23 9 -33 18 -18 16 -18 16 -12 0z"/>
<path d="M4670 2743 c0 -6 9 -22 20 -36 11 -14 20 -29 20 -34 0 -6 7 -10 15
-10 23 0 18 12 -20 53 -19 20 -35 32 -35 27z"/>
<path d="M1310 2705 c0 -8 4 -15 10 -15 5 0 7 7 4 15 -4 8 -8 15 -10 15 -2 0
-4 -7 -4 -15z"/>
<path d="M6609 2688 c-9 -7 -23 -25 -32 -40 -16 -26 -16 -28 5 -43 39 -27 48
-20 48 40 0 30 -1 55 -3 55 -2 0 -10 -6 -18 -12z"/>
<path d="M4666 2640 c3 -19 10 -39 15 -44 17 -19 16 0 -2 39 l-19 40 6 -35z"/>
<path d="M1380 2596 c0 -2 8 -10 18 -17 15 -13 16 -12 3 4 -13 16 -21 21 -21
13z"/>
<path d="M6486 2571 c-3 -4 -22 -11 -43 -15 -21 -3 -96 -21 -167 -39 -105 -28
-134 -39 -153 -61 -16 -19 -21 -34 -17 -52 5 -20 3 -24 -18 -24 -23 0 -68 -36
-68 -55 0 -17 382 33 401 52 6 6 4 20 -6 39 -21 40 -19 57 5 51 17 -4 19 -1
14 18 -5 21 -1 25 29 30 30 6 57 35 57 60 0 9 -29 5 -34 -4z"/>
<path d="M1170 2540 c0 -5 5 -10 10 -10 6 0 10 5 10 10 0 6 -4 10 -10 10 -5 0
-10 -4 -10 -10z"/>
<path d="M1280 2540 c-41 -4 -61 -7 -43 -8 17 -1 43 -6 57 -12 17 -6 26 -6 26
0 0 6 9 10 20 10 11 0 20 5 20 10 0 6 -1 9 -2 8 -2 -1 -37 -4 -78 -8z"/>
<path d="M1370 2536 c0 -9 30 -14 35 -6 4 6 -3 10 -14 10 -12 0 -21 -2 -21 -4z"/>
<path d="M1190 2514 c0 -1 6 -7 14 -13 10 -8 16 -8 25 3 10 11 7 14 -14 12
-14 0 -25 -2 -25 -2z"/>
<path d="M1160 2506 c0 -2 7 -9 15 -16 13 -11 14 -10 9 4 -5 14 -24 23 -24 12z"/>
<path d="M1335 2500 c-3 -5 -2 -10 4 -10 5 0 13 5 16 10 3 6 2 10 -4 10 -5 0
-13 -4 -16 -10z"/>
<path d="M1295 2490 c-3 -5 1 -10 9 -10 9 0 16 5 16 10 0 6 -4 10 -9 10 -6 0
-13 -4 -16 -10z"/>
<path d="M615 2469 c-4 -6 -4 -13 -1 -16 3 -4 6 -1 6 6 0 7 5 9 10 6 6 -3 10
-1 10 4 0 14 -17 14 -25 0z"/>
<path d="M1335 2470 c-3 -5 1 -10 10 -10 9 0 13 5 10 10 -3 6 -8 10 -10 10 -2
0 -7 -4 -10 -10z"/>
<path d="M3654 2373 c-6 -36 -31 -133 -41 -160 -3 -7 2 -13 11 -13 9 0 19 -7
22 -15 5 -12 31 -15 143 -15 76 0 141 3 144 6 4 4 -13 21 -36 39 -23 18 -53
46 -66 64 -13 17 -29 31 -34 31 -6 0 -32 23 -57 50 -56 61 -77 64 -86 13z"/>
<path d="M5583 2394 c-18 -9 -33 -20 -33 -25 0 -5 -4 -9 -10 -9 -5 0 -18 -7
-27 -15 -10 -8 -27 -21 -38 -29 -16 -12 11 -13 205 -9 124 3 229 6 234 7 5 1
-31 17 -80 35 -55 19 -97 29 -108 25 -12 -5 -23 -2 -30 8 -18 24 -76 30 -113
12z"/>
<path d="M2606 2353 c-11 -11 -99 -43 -118 -43 -35 0 -66 -21 -60 -42 4 -17 1
-19 -30 -13 -31 6 -62 0 -148 -31 -15 -5 126 -81 193 -103 40 -14 67 -4 67 25
0 8 11 32 25 54 14 22 25 46 25 54 0 8 6 16 13 19 14 5 52 76 45 83 -3 2 -8 1
-12 -3z m-176 -153 c0 -5 -7 -10 -15 -10 -8 0 -15 5 -15 10 0 6 7 10 15 10 8
0 15 -4 15 -10z"/>
<path d="M6450 2335 c0 -5 14 -30 36 -63 1 -2 19 6 41 16 l38 20 -25 10 c-19
7 -28 5 -37 -7 -11 -14 -13 -14 -19 7 -5 18 -34 33 -34 17z"/>
<path d="M5992 2293 c-6 -2 -9 -9 -6 -15 3 -5 0 -9 -7 -7 -24 3 -37 -1 -51
-14 -23 -22 -67 -47 -83 -47 -8 0 -15 -4 -15 -8 0 -5 -18 -17 -39 -27 -40 -18
-51 -40 -51 -106 0 -27 52 -116 78 -132 6 -4 12 -16 12 -25 0 -10 20 -44 45
-77 25 -33 45 -66 45 -74 0 -14 -47 -12 -150 8 -180 34 -274 51 -277 47 -6 -5
139 -58 177 -63 19 -3 42 -11 50 -18 24 -21 68 -36 75 -25 10 16 22 12 27 -8
4 -12 22 -23 54 -32 27 -8 97 -32 155 -55 l105 -42 -71 71 c-40 39 -83 79 -95
88 -13 10 -21 20 -18 23 3 3 80 9 172 14 92 5 170 12 173 14 5 5 -8 18 -64 64
-21 17 -23 27 -24 153 -1 80 4 153 11 179 10 40 10 46 -6 58 -10 7 -25 13 -33
13 -9 0 -52 11 -96 25 -44 14 -80 25 -80 24 0 0 -6 -3 -13 -6z m-2 -43 c0 -5
-8 -10 -17 -10 -15 0 -16 2 -3 10 19 12 20 12 20 0z m45 -20 c3 -5 1 -10 -4
-10 -6 0 -11 5 -11 10 0 6 2 10 4 10 3 0 8 -4 11 -10z m-115 -14 c0 -2 -7 -7
-16 -10 -8 -3 -12 -2 -9 4 6 10 25 14 25 6z m77 -2 c-3 -3 -12 -4 -19 -1 -8 3
-5 6 6 6 11 1 17 -2 13 -5z m143 -8 c0 -8 -3 -22 -6 -30 -5 -13 -9 -14 -20 -5
-11 9 -14 8 -14 -6 0 -14 -3 -15 -14 -6 -17 14 -9 52 9 45 7 -3 16 -1 20 5 9
16 25 13 25 -3z m-300 -41 c0 -8 -4 -15 -9 -15 -13 0 -22 16 -14 24 11 11 23
6 23 -9z m218 -13 c3 -17 -2 -22 -17 -22 -14 0 -21 6 -21 18 0 38 33 41 38 4z
m-228 -66 c0 -8 -4 -17 -9 -21 -12 -7 -24 12 -16 25 9 15 25 12 25 -4z m330
-66 c0 -5 -2 -10 -4 -10 -3 0 -8 5 -11 10 -3 6 -1 10 4 10 6 0 11 -4 11 -10z
m-40 -40 c0 -5 -4 -10 -10 -10 -5 0 -10 5 -10 10 0 6 5 10 10 10 6 0 10 -4 10
-10z m-150 -130 c0 -5 -4 -10 -10 -10 -5 0 -10 5 -10 10 0 6 5 10 10 10 6 0
10 -4 10 -10z m150 -10 c0 -5 -4 -10 -10 -10 -5 0 -10 5 -10 10 0 6 5 10 10
10 6 0 10 -4 10 -10z m106 -21 c10 -17 -13 -36 -27 -22 -12 12 -4 33 11 33 5
0 12 -5 16 -11z m51 -25 c-3 -3 -12 -4 -19 -1 -8 3 -5 6 6 6 11 1 17 -2 13 -5z"/>
<path d="M3000 2250 c-11 -7 -6 -9 17 -7 18 1 33 5 33 10 0 10 -32 9 -50 -3z"/>
<path d="M5487 2023 c-13 -13 -19 -14 -29 -5 -14 14 -174 17 -183 3 -9 -15 36
-82 61 -92 18 -6 24 -16 24 -39 0 -16 4 -30 8 -30 4 0 32 16 62 35 30 20 66
39 80 42 14 4 54 25 90 48 36 23 72 44 80 48 8 3 -28 6 -80 6 -78 1 -99 -2
-113 -16z"/>
<path d="M5189 1812 c-2 -18 3 -107 7 -111 2 -2 41 -5 86 -6 46 -1 114 -10
153 -19 113 -26 130 -20 50 18 -38 18 -71 29 -73 24 -7 -15 -44 -8 -49 10 -6
23 -93 58 -104 41 -9 -15 -32 -1 -25 16 2 7 -6 17 -20 24 -13 6 -24 7 -25 3z"/>
<path d="M4954 1726 c-3 -8 -12 -12 -20 -9 -8 3 -14 1 -14 -5 0 -5 -18 -29
-41 -52 -22 -23 -39 -43 -37 -44 2 -1 14 -8 28 -14 60 -31 109 -59 137 -79 17
-13 35 -23 41 -23 5 0 15 -7 22 -15 7 -8 21 -15 31 -15 16 0 15 5 -11 44 -17
24 -30 51 -30 61 0 9 -4 13 -10 10 -5 -3 -10 0 -10 8 0 8 -9 22 -20 32 -11 10
-20 26 -20 37 0 10 -4 18 -9 18 -5 0 -11 11 -13 25 -7 34 2 32 61 -15 53 -42
63 -47 59 -29 -2 6 3 14 10 16 7 3 12 -4 12 -16 0 -20 33 -48 130 -111 24 -16
46 -27 49 -25 2 2 -8 18 -23 35 -14 17 -26 37 -26 43 -1 7 -15 28 -33 48 -26
30 -49 42 -118 63 -96 29 -137 33 -145 12z m41 -147 c10 -15 -1 -23 -20 -15
-9 3 -13 10 -10 16 8 13 22 13 30 -1z"/>
<path d="M6040 1737 c0 -4 141 -39 152 -38 2 0 21 -4 42 -9 33 -7 44 -5 73 15
19 12 31 25 26 28 -11 6 -293 10 -293 4z"/>
<path d="M4318 1643 c7 -3 16 -2 19 1 4 3 -2 6 -13 5 -11 0 -14 -3 -6 -6z"/>
<path d="M4205 1620 c-3 -5 -2 -10 4 -10 5 0 13 5 16 10 3 6 2 10 -4 10 -5 0
-13 -4 -16 -10z"/>
<path d="M4436 1622 c-9 -15 -81 -62 -95 -62 -15 0 -151 -84 -151 -92 0 -5 47
-8 105 -8 l105 0 5 28 c4 15 15 46 26 70 20 40 24 93 5 64z m-86 -102 c0 -5
-4 -10 -10 -10 -5 0 -10 5 -10 10 0 6 5 10 10 10 6 0 10 -4 10 -10z"/>
<path d="M4268 1613 c7 -3 16 -2 19 1 4 3 -2 6 -13 5 -11 0 -14 -3 -6 -6z"/>
<path d="M5645 1612 c-3 -3 -5 -32 -5 -65 0 -55 3 -63 37 -101 21 -22 43 -40
51 -38 7 2 12 -4 10 -12 -2 -8 14 -37 35 -64 38 -48 40 -49 129 -66 50 -9 92
-15 94 -13 2 2 -56 44 -131 93 -120 80 -154 108 -141 121 2 2 84 -10 182 -27
98 -16 180 -30 182 -30 3 0 -17 16 -43 37 -53 40 -211 123 -235 123 -8 0 -33
10 -55 22 -37 20 -99 31 -110 20z"/>
<path d="M5336 1482 c6 -4 19 -23 29 -42 10 -19 21 -37 26 -40 9 -7 109 -201
109 -213 0 -9 74 -109 122 -165 37 -43 35 -35 -7 45 -19 36 -34 68 -32 69 2 2
32 -16 68 -39 35 -24 82 -54 104 -67 l40 -25 -23 35 c-13 19 -30 49 -39 67
l-16 32 -18 -22 c-16 -21 -18 -21 -25 -4 -4 13 0 25 14 39 l20 21 128 -68 129
-69 -53 67 c-28 37 -75 96 -103 132 -28 36 -57 65 -65 65 -8 0 -14 4 -14 9 0
5 -10 13 -22 16 -25 8 -70 28 -193 85 -152 72 -171 80 -181 80 -5 0 -4 -4 2
-8z"/>
<path d="M4795 1420 c-3 -5 -1 -10 4 -10 6 0 11 5 11 10 0 6 -2 10 -4 10 -3 0
-8 -4 -11 -10z"/>
<path d="M5119 1404 c-5 -15 -12 -31 -15 -36 -3 -5 11 -25 31 -45 21 -21 44
-48 52 -60 8 -13 20 -20 27 -16 6 3 8 3 4 -2 -4 -4 6 -23 22 -42 17 -18 30
-37 30 -42 0 -12 107 -67 115 -59 9 8 -22 62 -55 97 -28 30 -53 60 -92 113
-41 54 -57 68 -73 62 -8 -4 -15 -2 -15 4 0 6 6 12 13 15 9 3 9 7 -2 20 -19 24
-30 21 -42 -9z"/>
<path d="M1260 1335 c-19 -14 -29 -25 -23 -25 7 0 25 11 40 25 36 31 28 31
-17 0z"/>
<path d="M4770 1350 c0 -5 5 -10 10 -10 6 0 10 5 10 10 0 6 -4 10 -10 10 -5 0
-10 -4 -10 -10z"/>
<path d="M4880 1356 c0 -2 9 -6 20 -9 11 -3 18 -1 14 4 -5 9 -34 13 -34 5z"/>
<path d="M1172 1276 c-44 -31 -47 -36 -25 -30 22 6 83 53 68 53 -5 0 -25 -10
-43 -23z"/>
<path d="M4711 1284 c0 -11 3 -14 6 -6 3 7 2 16 -1 19 -3 4 -6 -2 -5 -13z"/>
<path d="M4760 1251 c0 -5 7 -12 16 -15 14 -5 15 -4 4 9 -14 17 -20 19 -20 6z"/>
<path d="M5150 1253 c0 -4 5 -15 10 -23 8 -13 10 -13 10 2 0 9 -4 20 -10 23
-5 3 -10 3 -10 -2z"/>
<path d="M4727 1239 c7 -7 15 -10 18 -7 3 3 -2 9 -12 12 -14 6 -15 5 -6 -5z"/>
<path d="M4745 1210 c-3 -5 -1 -10 4 -10 6 0 11 5 11 10 0 6 -2 10 -4 10 -3 0
-8 -4 -11 -10z"/>
<path d="M5474 1080 l-32 -5 45 -50 45 -50 -7 45 c-10 60 -15 66 -51 60z"/>
<path d="M5330 1076 c0 -2 8 -10 18 -17 15 -13 16 -12 3 4 -13 16 -21 21 -21
13z"/>
<path d="M1682 1045 c-12 -14 -18 -25 -13 -25 11 0 45 39 39 45 -2 3 -14 -6
-26 -20z"/>
<path d="M1626 1006 c-3 -13 -9 -32 -12 -43 -4 -13 0 -11 15 7 21 26 28 60 12
60 -5 0 -12 -11 -15 -24z"/>
<path d="M5410 952 c13 -23 25 -40 28 -38 5 6 -26 64 -39 72 -7 4 -2 -12 11
-34z"/>
<path d="M4705 870 c-3 -5 1 -10 10 -10 9 0 13 -4 10 -10 -7 -11 8 -14 18 -3
8 7 -11 33 -24 33 -4 0 -11 -4 -14 -10z"/>
<path d="M5000 866 c0 -2 27 -22 60 -45 33 -23 60 -40 60 -37 0 3 -7 24 -16
46 -13 32 -19 38 -30 29 -10 -8 -22 -8 -44 -1 -16 6 -30 10 -30 8z"/>
<path d="M4786 804 c-3 -8 -2 -12 4 -9 6 3 10 0 10 -8 0 -8 10 -25 23 -39 13
-14 22 -29 21 -34 -2 -5 43 -47 99 -94 56 -47 97 -78 92 -70 -5 8 -28 46 -53
84 -24 37 -42 70 -40 71 2 2 34 -24 72 -58 38 -34 64 -51 57 -39 -19 35 -142
162 -157 162 -7 0 -34 11 -60 25 -55 29 -60 30 -68 9z"/>
<path d="M4790 675 c-14 -15 -20 -29 -14 -33 5 -5 30 -25 56 -46 40 -32 46
-34 41 -15 -3 12 -14 24 -24 26 -14 4 -17 12 -13 32 3 14 -1 34 -8 44 -13 17
-15 17 -38 -8z"/>
<path d="M2266 674 c-4 -10 -1 -14 6 -12 15 5 23 28 10 28 -5 0 -13 -7 -16
-16z"/>
<path d="M4455 617 c-16 -6 -32 -13 -34 -14 -3 -2 8 -17 24 -33 19 -20 31 -26
36 -19 10 17 31 0 25 -19 -6 -21 47 -65 71 -59 16 3 16 5 -2 12 -25 10 -54 45
-55 66 0 9 -9 28 -20 41 -10 14 -16 28 -13 32 8 7 6 7 -32 -7z"/>
<path d="M4090 486 c0 -39 25 -113 53 -154 16 -24 31 -41 34 -39 5 5 -66 188
-78 202 -6 5 -9 2 -9 -9z"/>
<path d="M4610 476 c0 -2 7 -7 16 -10 8 -3 12 -2 9 4 -6 10 -25 14 -25 6z"/>
<path d="M3760 341 c0 -8 -7 -11 -15 -7 -11 4 -15 -2 -15 -22 0 -15 5 -34 10
-42 8 -12 10 -10 10 8 0 13 5 32 11 44 6 11 8 22 5 26 -3 3 -6 0 -6 -7z"/>
</g>
</svg>
